<?xml version="1.0" encoding="UTF-8"?>
<!-- Created with Inkscape (http://www.inkscape.org/) -->
<svg width="132.29mm" height="89.129mm" version="1.1" viewBox="0 0 132.29 89.129" xmlns="http://www.w3.org/2000/svg" xmlns:cc="http://creativecommons.org/ns#" xmlns:dc="http://purl.org/dc/elements/1.1/" xmlns:rdf="http://www.w3.org/1999/02/22-rdf-syntax-ns#" xmlns:xlink="http://www.w3.org/1999/xlink">
 <defs>
  <linearGradient id="linearGradient2055" x1="-14080" x2="-13470" y1="2711.1" y2="2112.5" gradientTransform="matrix(.74987 -.4669 .46167 .91407 -3350.3 -5826.3)" gradientUnits="userSpaceOnUse">
   <stop stop-color="#2d74ff" offset="0"/>
   <stop stop-color="#0157ff" offset="1"/>
  </linearGradient>
  <linearGradient id="linearGradient2039" x1="-13390" x2="-13190" y1="3318.7" y2="3318.7" gradientUnits="userSpaceOnUse">
   <stop stop-color="#0045ce" offset="0"/>
   <stop stop-color="#0045ce" offset="1"/>
  </linearGradient>
  <linearGradient id="linearGradient2001" x1="-13988" x2="-13758" y1="2798.8" y2="2182.3" gradientTransform="matrix(.30048 -.061202 .080512 .22841 -9318.6 1882.6)" gradientUnits="userSpaceOnUse">
   <stop stop-color="#3d7eff" offset="0"/>
   <stop stop-color="#0157ff" offset="1"/>
  </linearGradient>
  <linearGradient id="linearGradient1985" x1="-13988" x2="-13758" y1="2798.8" y2="2182.3" gradientTransform="matrix(.30048 -.061202 .080512 .22841 -9318.6 1882.6)" gradientUnits="userSpaceOnUse" xlink:href="#linearGradient1913"/>
  <linearGradient id="linearGradient1913">
   <stop stop-color="#1463ff" offset="0"/>
   <stop stop-color="#518cff" offset="1"/>
  </linearGradient>
  <radialGradient id="radialGradient2134" cx="-13115" cy="3107.7" r="100" gradientTransform="matrix(.090799 .27285 -.24276 .052375 1897.2 3550.3)" gradientUnits="userSpaceOnUse" xlink:href="#linearGradient2128"/>
  <linearGradient id="linearGradient2128">
   <stop stop-color="#0045ce" offset="0"/>
   <stop stop-color="#0045ce" stop-opacity="0" offset="1"/>
  </linearGradient>
  <radialGradient id="radialGradient2130" cx="-13115" cy="3107.7" r="100" gradientTransform="matrix(.35082 0 0 .25132 4527.4 -647.38)" gradientUnits="userSpaceOnUse" xlink:href="#linearGradient2128"/>
 </defs>
 <metadata>
  <rdf:RDF>
   <cc:Work rdf:about="">
    <dc:format>image/svg+xml</dc:format>
    <dc:type rdf:resource="http://purl.org/dc/dcmitype/StillImage"/>
    <dc:title/>
   </cc:Work>
  </rdf:RDF>
 </metadata>
 <g transform="translate(129.65 -74.787)">
  <rect x="-129.65" y="74.787" width="132.29" height="89.129" fill="none" opacity=".985" style="paint-order:stroke markers fill"/>
  <path d="m-82.522 109.4c-8.681 1.6667-16.476 5.7013-21.312 11.703-9.671 12.003-3.9068 27.417 12.844 34.347 8.0052 3.3116 17.183 4.0636 25.577 2.7212 9.0652-1.5609 17.308-5.6574 22.357-11.924 4.5365-5.6297 5.6478-12.04 3.923-17.993l-0.1442-0.0583c-1.9989-6.5925-7.7645-12.631-16.622-16.295-8.3756-3.4649-17.942-4.1662-26.623-2.4994z" fill="url(#radialGradient2130)" stroke-width=".26458"/>
  <path d="m-26.918 122.72c-3.8566-6.4042-9.7713-11.626-16.82-14.136-14.097-5.0202-27.494 2.675-29.852 17.147-1.1269 6.9161 0.52202 14.21 3.9915 20.459 3.8539 6.725 9.9444 12.282 17.305 14.903 6.6119 2.355 13.091 1.8835 18.396-0.69868l0.01852-0.1243c5.8505-2.9285 10.191-8.6709 11.438-16.324 1.1792-7.2361-0.61965-14.823-4.4762-21.227z" fill="url(#radialGradient2134)" stroke-width=".26458"/>
  <g stroke-width="1.03">
   <g transform="matrix(.26458 0 0 .2494 3440.9 -698.42)">
    <path d="m-13316 3245.3c-24.745 5.0401-46.965 17.24-60.749 35.389-27.567 36.296-11.137 82.909 36.612 103.86 22.818 10.014 48.978 12.288 72.907 8.2288 25.84-4.7201 49.335-17.108 63.728-36.059 12.931-17.024 16.099-36.407 11.182-54.412l-0.411-0.1762c-5.698-19.936-22.132-38.195-47.382-49.276-23.874-10.478-51.143-12.598-75.888-7.5583z" fill="#0045ce" stroke-width="1.03"/>
    <path d="m-13316 3225.3c-24.745 5.0401-46.965 17.24-60.749 35.389-27.567 36.296-11.137 82.909 36.612 103.86 22.818 10.014 48.978 12.288 72.907 8.2288 25.84-4.7201 49.335-17.108 63.728-36.059 12.931-17.024 16.099-36.407 11.182-54.412l-0.411-0.1762c-5.698-19.936-22.132-38.195-47.382-49.276-23.874-10.478-51.143-12.598-75.888-7.5583z" fill="url(#linearGradient1985)" stroke-width="1.03"/>
    <g transform="matrix(.24177 -.049245 .064783 .18378 -10418 2213.2)" fill="#fff" stroke-width="4.7197">
     <path d="m-12576 2699.1c-29.04-3.745-52.276-16.008-91-48.029-19.726-16.312-31.835-23.668-46.637-28.334-15.516-4.89-29.343-4.513-46.113 1.256l-8.25 2.838v-83.536l6.75-1.363c4.445-0.898 13.749-1.349 27.25-1.321 17.341 0.03 22.016 0.38 30.338 2.235 29.501 6.577 55.772 20.048 83.994 43.071 24.76 20.199 33.735 26.392 44.613 30.786 16.669 6.733 32.377 5.397 49.989-4.249 8.009-4.387 16.586-10.668 33.032-24.19 24.35-20.02 45.665-32.483 68.586-40.103 19.947-6.632 26.202-7.592 49.448-7.592 11.275 0 21.737 0.346 23.25 0.769l2.75 0.769v40.481c0 45.916 0.984 41.653-9 38.991-13.438-3.583-27.224-2.846-41.5 2.218-13.051 4.63-25.274 12.523-47.209 30.482-32.087 26.272-51.551 37.244-76.123 42.912-9.782 2.257-42.521 3.41-54.168 1.909z"/>
     <path d="m-12735 2383.1c-6.678 0.02-26.657 2.326-30.385 3.509-1.834 0.582-1.904 2.175-1.904 41.932v41.326l9.054-2.91c21.919-7.049 38.392-5.739 59.25 4.713 9.685 4.853 16.815 9.878 36.696 25.865 20.835 16.755 27.547 21.588 39.498 28.436 15.77 9.035 34.861 15.188 52.847 17.031 5.035 0.518 14.763 0.716 21.619 0.447 22.198-0.874 38.212-4.68 55.536-13.201 14.206-6.988 25.019-14.414 49.115-33.736 20.983-16.825 31.072-23.52 42.275-28.045 17.617-7.116 32.484-7.617 52.371-1.764 1.665 0.489 1.747-1.726 1.5-40.258l-0.261-40.777-4-0.943c-2.2-0.518-11.65-0.974-21-1.004-26.458-0.1-45.699 4.44-71 16.75-15.68 7.629-30.074 17.039-45.5 29.744-33.463 27.562-45.468 33.863-64.5 33.863-18.599 0-29.143-5.38-60.444-30.844-32.045-26.07-56.715-39.324-85.556-45.968-10.473-2.412-25.532-4.196-35.211-4.166z"/>
    </g>
    <path d="m-13313 3230.5c-11.61 2.2774-22.327 6.2298-31.694 11.488-0.178 0.099-0.358 0.1978-0.536 0.2981 0 0-0.01 0.01-0.02 0.01-29.544 16.684-44.214 45.912-34.091 74.632 10.604 30.083 45.319 50.27 83.96 51.997 1.902 0.1139 3.86 0.199 5.826 0.199 50.886-0.2277 92.193-31.628 92.193-70.536 0-4.8637-0.645-9.6101-1.874-14.192-0.337-1.3647-0.723-2.758-1.209-4.136-1.508-4.1816-3.487-8.1714-5.875-11.949-0.261-0.4173-0.53-0.831-0.802-1.2437-0.01-0.022-0.03-0.044-0.04-0.066-15.189-22.987-46.462-38.717-82.688-38.717-7.998 0-15.754 0.7721-23.15 2.2227zm0.558 4.5468c21.468-4.3726 45.125-2.5363 65.838 6.5542 21.997 9.6536 36.291 25.588 41.177 42.966 4.555 15.562 1.805 32.376-9.413 47.146-1.856 2.4443-3.891 4.7598-6.077 6.9493-2.302 2.2844-4.822 4.4812-7.569 6.5697-17.96 13.652-41.907 20.024-65.255 19.114-20.953-0.6827-41.607-7.0539-57.472-19.114-17.66-13.425-26.041-31.173-25.442-48.693 0.124-3.3616 0.591-6.7225 1.392-10.049 0.06-0.2358 0.112-0.472 0.173-0.7075 1.801-6.8735 5.084-13.639 9.942-20.036 11.959-15.745 31.238-26.327 52.706-30.7z" fill="#fff" stroke-width="1.03"/>
   </g>
   <g transform="matrix(.26458 0 0 .2494 3440.9 -704.41)">
    <path d="m-13316 3245.3c-24.745 5.0401-46.965 17.24-60.749 35.389-27.567 36.296-11.137 82.909 36.612 103.86 22.818 10.014 48.978 12.288 72.907 8.2288 25.84-4.7201 49.335-17.108 63.728-36.059 12.931-17.024 16.099-36.407 11.182-54.412l-0.411-0.1762c-5.698-19.936-22.132-38.195-47.382-49.276-23.874-10.478-51.143-12.598-75.888-7.5583z" fill="#0045ce" stroke-width="1.03"/>
    <path d="m-13316 3225.3c-24.745 5.0401-46.965 17.24-60.749 35.389-27.567 36.296-11.137 82.909 36.612 103.86 22.818 10.014 48.978 12.288 72.907 8.2288 25.84-4.7201 49.335-17.108 63.728-36.059 12.931-17.024 16.099-36.407 11.182-54.412l-0.411-0.1762c-5.698-19.936-22.132-38.195-47.382-49.276-23.874-10.478-51.143-12.598-75.888-7.5583z" fill="url(#linearGradient1985)" stroke-width="1.03"/>
    <g transform="matrix(.24177 -.049245 .064783 .18378 -10418 2213.2)" fill="#fff" stroke-width="4.7197">
     <path d="m-12576 2699.1c-29.04-3.745-52.276-16.008-91-48.029-19.726-16.312-31.835-23.668-46.637-28.334-15.516-4.89-29.343-4.513-46.113 1.256l-8.25 2.838v-83.536l6.75-1.363c4.445-0.898 13.749-1.349 27.25-1.321 17.341 0.03 22.016 0.38 30.338 2.235 29.501 6.577 55.772 20.048 83.994 43.071 24.76 20.199 33.735 26.392 44.613 30.786 16.669 6.733 32.377 5.397 49.989-4.249 8.009-4.387 16.586-10.668 33.032-24.19 24.35-20.02 45.665-32.483 68.586-40.103 19.947-6.632 26.202-7.592 49.448-7.592 11.275 0 21.737 0.346 23.25 0.769l2.75 0.769v40.481c0 45.916 0.984 41.653-9 38.991-13.438-3.583-27.224-2.846-41.5 2.218-13.051 4.63-25.274 12.523-47.209 30.482-32.087 26.272-51.551 37.244-76.123 42.912-9.782 2.257-42.521 3.41-54.168 1.909z"/>
     <path d="m-12735 2383.1c-6.678 0.02-26.657 2.326-30.385 3.509-1.834 0.582-1.904 2.175-1.904 41.932v41.326l9.054-2.91c21.919-7.049 38.392-5.739 59.25 4.713 9.685 4.853 16.815 9.878 36.696 25.865 20.835 16.755 27.547 21.588 39.498 28.436 15.77 9.035 34.861 15.188 52.847 17.031 5.035 0.518 14.763 0.716 21.619 0.447 22.198-0.874 38.212-4.68 55.536-13.201 14.206-6.988 25.019-14.414 49.115-33.736 20.983-16.825 31.072-23.52 42.275-28.045 17.617-7.116 32.484-7.617 52.371-1.764 1.665 0.489 1.747-1.726 1.5-40.258l-0.261-40.777-4-0.943c-2.2-0.518-11.65-0.974-21-1.004-26.458-0.1-45.699 4.44-71 16.75-15.68 7.629-30.074 17.039-45.5 29.744-33.463 27.562-45.468 33.863-64.5 33.863-18.599 0-29.143-5.38-60.444-30.844-32.045-26.07-56.715-39.324-85.556-45.968-10.473-2.412-25.532-4.196-35.211-4.166z"/>
    </g>
    <path d="m-13313 3230.5c-11.61 2.2774-22.327 6.2298-31.694 11.488-0.178 0.099-0.358 0.1978-0.536 0.2981 0 0-0.01 0.01-0.02 0.01-29.544 16.684-44.214 45.912-34.091 74.632 10.604 30.083 45.319 50.27 83.96 51.997 1.902 0.1139 3.86 0.199 5.826 0.199 50.886-0.2277 92.193-31.628 92.193-70.536 0-4.8637-0.645-9.6101-1.874-14.192-0.337-1.3647-0.723-2.758-1.209-4.136-1.508-4.1816-3.487-8.1714-5.875-11.949-0.261-0.4173-0.53-0.831-0.802-1.2437-0.01-0.022-0.03-0.044-0.04-0.066-15.189-22.987-46.462-38.717-82.688-38.717-7.998 0-15.754 0.7721-23.15 2.2227zm0.558 4.5468c21.468-4.3726 45.125-2.5363 65.838 6.5542 21.997 9.6536 36.291 25.588 41.177 42.966 4.555 15.562 1.805 32.376-9.413 47.146-1.856 2.4443-3.891 4.7598-6.077 6.9493-2.302 2.2844-4.822 4.4812-7.569 6.5697-17.96 13.652-41.907 20.024-65.255 19.114-20.953-0.6827-41.607-7.0539-57.472-19.114-17.66-13.425-26.041-31.173-25.442-48.693 0.124-3.3616 0.591-6.7225 1.392-10.049 0.06-0.2358 0.112-0.472 0.173-0.7075 1.801-6.8735 5.084-13.639 9.942-20.036 11.959-15.745 31.238-26.327 52.706-30.7z" fill="#fff" stroke-width="1.03"/>
   </g>
   <g transform="matrix(.26458 0 0 .2494 3440.9 -710.4)">
    <path d="m-13316 3245.3c-24.745 5.0401-46.965 17.24-60.749 35.389-27.567 36.296-11.137 82.909 36.612 103.86 22.818 10.014 48.978 12.288 72.907 8.2288 25.84-4.7201 49.335-17.108 63.728-36.059 12.931-17.024 16.099-36.407 11.182-54.412l-0.411-0.1762c-5.698-19.936-22.132-38.195-47.382-49.276-23.874-10.478-51.143-12.598-75.888-7.5583z" fill="#0045ce" stroke-width="1.03"/>
    <path d="m-13316 3225.3c-24.745 5.0401-46.965 17.24-60.749 35.389-27.567 36.296-11.137 82.909 36.612 103.86 22.818 10.014 48.978 12.288 72.907 8.2288 25.84-4.7201 49.335-17.108 63.728-36.059 12.931-17.024 16.099-36.407 11.182-54.412l-0.411-0.1762c-5.698-19.936-22.132-38.195-47.382-49.276-23.874-10.478-51.143-12.598-75.888-7.5583z" fill="url(#linearGradient1985)" stroke-width="1.03"/>
    <g transform="matrix(.24177 -.049245 .064783 .18378 -10418 2213.2)" fill="#fff" stroke-width="4.7197">
     <path d="m-12576 2699.1c-29.04-3.745-52.276-16.008-91-48.029-19.726-16.312-31.835-23.668-46.637-28.334-15.516-4.89-29.343-4.513-46.113 1.256l-8.25 2.838v-83.536l6.75-1.363c4.445-0.898 13.749-1.349 27.25-1.321 17.341 0.03 22.016 0.38 30.338 2.235 29.501 6.577 55.772 20.048 83.994 43.071 24.76 20.199 33.735 26.392 44.613 30.786 16.669 6.733 32.377 5.397 49.989-4.249 8.009-4.387 16.586-10.668 33.032-24.19 24.35-20.02 45.665-32.483 68.586-40.103 19.947-6.632 26.202-7.592 49.448-7.592 11.275 0 21.737 0.346 23.25 0.769l2.75 0.769v40.481c0 45.916 0.984 41.653-9 38.991-13.438-3.583-27.224-2.846-41.5 2.218-13.051 4.63-25.274 12.523-47.209 30.482-32.087 26.272-51.551 37.244-76.123 42.912-9.782 2.257-42.521 3.41-54.168 1.909z"/>
     <path d="m-12735 2383.1c-6.678 0.02-26.657 2.326-30.385 3.509-1.834 0.582-1.904 2.175-1.904 41.932v41.326l9.054-2.91c21.919-7.049 38.392-5.739 59.25 4.713 9.685 4.853 16.815 9.878 36.696 25.865 20.835 16.755 27.547 21.588 39.498 28.436 15.77 9.035 34.861 15.188 52.847 17.031 5.035 0.518 14.763 0.716 21.619 0.447 22.198-0.874 38.212-4.68 55.536-13.201 14.206-6.988 25.019-14.414 49.115-33.736 20.983-16.825 31.072-23.52 42.275-28.045 17.617-7.116 32.484-7.617 52.371-1.764 1.665 0.489 1.747-1.726 1.5-40.258l-0.261-40.777-4-0.943c-2.2-0.518-11.65-0.974-21-1.004-26.458-0.1-45.699 4.44-71 16.75-15.68 7.629-30.074 17.039-45.5 29.744-33.463 27.562-45.468 33.863-64.5 33.863-18.599 0-29.143-5.38-60.444-30.844-32.045-26.07-56.715-39.324-85.556-45.968-10.473-2.412-25.532-4.196-35.211-4.166z"/>
    </g>
    <path d="m-13313 3230.5c-11.61 2.2774-22.327 6.2298-31.694 11.488-0.178 0.099-0.358 0.1978-0.536 0.2981 0 0-0.01 0.01-0.02 0.01-29.544 16.684-44.214 45.912-34.091 74.632 10.604 30.083 45.319 50.27 83.96 51.997 1.902 0.1139 3.86 0.199 5.826 0.199 50.886-0.2277 92.193-31.628 92.193-70.536 0-4.8637-0.645-9.6101-1.874-14.192-0.337-1.3647-0.723-2.758-1.209-4.136-1.508-4.1816-3.487-8.1714-5.875-11.949-0.261-0.4173-0.53-0.831-0.802-1.2437-0.01-0.022-0.03-0.044-0.04-0.066-15.189-22.987-46.462-38.717-82.688-38.717-7.998 0-15.754 0.7721-23.15 2.2227zm0.558 4.5468c21.468-4.3726 45.125-2.5363 65.838 6.5542 21.997 9.6536 36.291 25.588 41.177 42.966 4.555 15.562 1.805 32.376-9.413 47.146-1.856 2.4443-3.891 4.7598-6.077 6.9493-2.302 2.2844-4.822 4.4812-7.569 6.5697-17.96 13.652-41.907 20.024-65.255 19.114-20.953-0.6827-41.607-7.0539-57.472-19.114-17.66-13.425-26.041-31.173-25.442-48.693 0.124-3.3616 0.591-6.7225 1.392-10.049 0.06-0.2358 0.112-0.472 0.173-0.7075 1.801-6.8735 5.084-13.639 9.942-20.036 11.959-15.745 31.238-26.327 52.706-30.7z" fill="#fff" stroke-width="1.03"/>
   </g>
   <g transform="matrix(.26458 0 0 .2494 3440.9 -716.38)">
    <path d="m-13316 3245.3c-24.745 5.0401-46.965 17.24-60.749 35.389-27.567 36.296-11.137 82.909 36.612 103.86 22.818 10.014 48.978 12.288 72.907 8.2288 25.84-4.7201 49.335-17.108 63.728-36.059 12.931-17.024 16.099-36.407 11.182-54.412l-0.411-0.1762c-5.698-19.936-22.132-38.195-47.382-49.276-23.874-10.478-51.143-12.598-75.888-7.5583z" fill="url(#linearGradient2039)" stroke-width="1.03"/>
    <path d="m-13316 3225.3c-24.745 5.0401-46.965 17.24-60.749 35.389-27.567 36.296-11.137 82.909 36.612 103.86 22.818 10.014 48.978 12.288 72.907 8.2288 25.84-4.7201 49.335-17.108 63.728-36.059 12.931-17.024 16.099-36.407 11.182-54.412l-0.411-0.1762c-5.698-19.936-22.132-38.195-47.382-49.276-23.874-10.478-51.143-12.598-75.888-7.5583z" fill="url(#linearGradient2001)" stroke-width="1.03"/>
    <g transform="matrix(.24177 -.049245 .064783 .18378 -10418 2213.2)" fill="#fff" stroke-width="4.7197">
     <path d="m-12576 2699.1c-29.04-3.745-52.276-16.008-91-48.029-19.726-16.312-31.835-23.668-46.637-28.334-15.516-4.89-29.343-4.513-46.113 1.256l-8.25 2.838v-83.536l6.75-1.363c4.445-0.898 13.749-1.349 27.25-1.321 17.341 0.03 22.016 0.38 30.338 2.235 29.501 6.577 55.772 20.048 83.994 43.071 24.76 20.199 33.735 26.392 44.613 30.786 16.669 6.733 32.377 5.397 49.989-4.249 8.009-4.387 16.586-10.668 33.032-24.19 24.35-20.02 45.665-32.483 68.586-40.103 19.947-6.632 26.202-7.592 49.448-7.592 11.275 0 21.737 0.346 23.25 0.769l2.75 0.769v40.481c0 45.916 0.984 41.653-9 38.991-13.438-3.583-27.224-2.846-41.5 2.218-13.051 4.63-25.274 12.523-47.209 30.482-32.087 26.272-51.551 37.244-76.123 42.912-9.782 2.257-42.521 3.41-54.168 1.909z"/>
     <path d="m-12735 2383.1c-6.678 0.02-26.657 2.326-30.385 3.509-1.834 0.582-1.904 2.175-1.904 41.932v41.326l9.054-2.91c21.919-7.049 38.392-5.739 59.25 4.713 9.685 4.853 16.815 9.878 36.696 25.865 20.835 16.755 27.547 21.588 39.498 28.436 15.77 9.035 34.861 15.188 52.847 17.031 5.035 0.518 14.763 0.716 21.619 0.447 22.198-0.874 38.212-4.68 55.536-13.201 14.206-6.988 25.019-14.414 49.115-33.736 20.983-16.825 31.072-23.52 42.275-28.045 17.617-7.116 32.484-7.617 52.371-1.764 1.665 0.489 1.747-1.726 1.5-40.258l-0.261-40.777-4-0.943c-2.2-0.518-11.65-0.974-21-1.004-26.458-0.1-45.699 4.44-71 16.75-15.68 7.629-30.074 17.039-45.5 29.744-33.463 27.562-45.468 33.863-64.5 33.863-18.599 0-29.143-5.38-60.444-30.844-32.045-26.07-56.715-39.324-85.556-45.968-10.473-2.412-25.532-4.196-35.211-4.166z"/>
    </g>
    <path d="m-13313 3230.5c-11.61 2.2774-22.327 6.2298-31.694 11.488-0.178 0.099-0.358 0.1978-0.536 0.2981 0 0-0.01 0.01-0.02 0.01-29.544 16.684-44.214 45.912-34.091 74.632 10.604 30.083 45.319 50.27 83.96 51.997 1.902 0.1139 3.86 0.199 5.826 0.199 50.886-0.2277 92.193-31.628 92.193-70.536 0-4.8637-0.645-9.6101-1.874-14.192-0.337-1.3647-0.723-2.758-1.209-4.136-1.508-4.1816-3.487-8.1714-5.875-11.949-0.261-0.4173-0.53-0.831-0.802-1.2437-0.01-0.022-0.03-0.044-0.04-0.066-15.189-22.987-46.462-38.717-82.688-38.717-7.998 0-15.754 0.7721-23.15 2.2227zm0.558 4.5468c21.468-4.3726 45.125-2.5363 65.838 6.5542 21.997 9.6536 36.291 25.588 41.177 42.966 4.555 15.562 1.805 32.376-9.413 47.146-1.856 2.4443-3.891 4.7598-6.077 6.9493-2.302 2.2844-4.822 4.4812-7.569 6.5697-17.96 13.652-41.907 20.024-65.255 19.114-20.953-0.6827-41.607-7.0539-57.472-19.114-17.66-13.425-26.041-31.173-25.442-48.693 0.124-3.3616 0.591-6.7225 1.392-10.049 0.06-0.2358 0.112-0.472 0.173-0.7075 1.801-6.8735 5.084-13.639 9.942-20.036 11.959-15.745 31.238-26.327 52.706-30.7z" fill="#fff" stroke-width="1.03"/>
   </g>
  </g>
  <g transform="matrix(.063643 -.040651 .036744 .07041 652.64 -593.05)" stroke-width="3.4229">
   <g transform="matrix(1.001 .15489 -.17131 .97252 511.57 2040)">
    <path d="m-12843 2613.3c-61.753 38.45-109.03 105.56-127.09 192.09-36.12 173.07 58.095 359.61 209.93 415.66 72.562 26.781 145.94 18.404 206.53-15.322 65.063-37.846 115.6-106.63 134.46-196.99 16.941-81.177 4.892-165.64-27.624-238.68l-1.302-0.4646c-36.688-80.697-100.72-146.88-181.01-176.51-75.919-28.022-152.14-18.228-213.9 20.223z" fill="#0045ce" stroke-width="3.4229"/>
    <path d="m-12762 2628.1c-61.752 38.45-109.03 105.56-127.09 192.09-36.12 173.08 58.094 359.61 209.93 415.66 72.561 26.781 145.94 18.403 206.53-15.323 65.063-37.846 115.6-106.63 134.46-196.99 16.942-81.177 4.893-165.64-27.623-238.68l-1.302-0.4645c-36.688-80.697-100.72-146.88-181.01-176.51-75.919-28.022-152.14-18.227-213.9 20.223z" fill="url(#linearGradient2055)" stroke-width="3.4229"/>
    <g transform="matrix(.71324 -.16664 .12042 .78972 -3959.6 -1160)" fill="#fff" stroke-width="4.4817">
     <path d="m-12576 2699.1c-29.04-3.745-52.276-16.008-91-48.029-19.726-16.312-31.835-23.668-46.637-28.334-15.516-4.89-29.343-4.513-46.113 1.256l-8.25 2.838v-83.536l6.75-1.363c4.445-0.898 13.749-1.349 27.25-1.321 17.341 0.03 22.016 0.38 30.338 2.235 29.501 6.577 55.772 20.048 83.994 43.071 24.76 20.199 33.735 26.392 44.613 30.786 16.669 6.733 32.377 5.397 49.989-4.249 8.009-4.387 16.586-10.668 33.032-24.19 24.35-20.02 45.665-32.483 68.586-40.103 19.947-6.632 26.202-7.592 49.448-7.592 11.275 0 21.737 0.346 23.25 0.769l2.75 0.769v40.481c0 45.916 0.984 41.653-9 38.991-13.438-3.583-27.224-2.846-41.5 2.218-13.051 4.63-25.274 12.523-47.209 30.482-32.087 26.272-51.551 37.244-76.123 42.912-9.782 2.257-42.521 3.41-54.168 1.909z"/>
     <path d="m-12735 2383.1c-6.678 0.02-26.657 2.326-30.385 3.509-1.834 0.582-1.904 2.175-1.904 41.932v41.326l9.054-2.91c21.919-7.049 38.392-5.739 59.25 4.713 9.685 4.853 16.815 9.878 36.696 25.865 20.835 16.755 27.547 21.588 39.498 28.436 15.77 9.035 34.861 15.188 52.847 17.031 5.035 0.518 14.763 0.716 21.619 0.447 22.198-0.874 38.212-4.68 55.536-13.201 14.206-6.988 25.019-14.414 49.115-33.736 20.983-16.825 31.072-23.52 42.275-28.045 17.617-7.116 32.484-7.617 52.371-1.764 1.665 0.489 1.747-1.726 1.5-40.258l-0.261-40.777-4-0.943c-2.2-0.518-11.65-0.974-21-1.004-26.458-0.1-45.699 4.44-71 16.75-15.68 7.629-30.074 17.039-45.5 29.744-33.463 27.562-45.468 33.863-64.5 33.863-18.599 0-29.143-5.38-60.444-30.844-32.045-26.07-56.715-39.324-85.556-45.968-10.473-2.412-25.532-4.196-35.211-4.166z"/>
    </g>
    <path d="m-12749 2648.5c-29.069 17.67-53.929 41.834-73.735 70.613-0.38 0.5452-0.761 1.0864-1.137 1.6346-0.01 0.02-0.02 0.035-0.04 0.05-62.369 91.183-71.032 225.37-12.984 340.3 60.804 120.39 176.47 182.15 283.13 162.85 5.281-0.828 10.682-1.8157 16.015-3.1712 137.79-36.041 216.39-197.8 174.95-362.96-5.179-20.646-11.985-40.349-20.201-58.953v-0.018c-2.368-5.5608-4.898-11.209-7.683-16.724-8.547-16.71-18.163-32.283-28.664-46.674-1.154-1.5908-2.325-3.1617-3.502-4.7257-0.06-0.086-0.127-0.1679-0.185-0.2535-65.682-87.106-167.27-132.32-265.53-107.35-21.695 5.5123-41.913 14.137-60.429 25.392zm6.357 18.916c53.575-33.358 119.7-41.869 185.57-17.558 69.948 25.817 125.69 83.601 157.46 154 28.931 62.917 39.38 136.19 24.68 206.61-2.431 11.655-5.485 22.887-9.082 33.688-3.81 11.283-8.307 22.346-13.534 33.105-34.176 70.332-92.347 113.88-156.65 126.11-57.564 11.544-120.38-1.2642-176.25-41.52-62.204-44.813-103.84-114.37-120.88-189.16-3.241-14.355-5.555-28.944-6.925-43.617-0.09-1.0408-0.201-2.0803-0.284-3.1226-2.437-30.418-0.737-61.401 5.628-91.901 15.668-75.079 56.695-133.29 110.27-166.64z" fill="#fff" stroke-width="3.4229"/>
   </g>
  </g>
 </g>
</svg>
