<?xml version="1.0" encoding="UTF-8" standalone="no"?>
<!-- Roman Inozemtsev: https://github.com/mir-one/  -->

<svg
   xmlns:dc="http://purl.org/dc/elements/1.1/"
   xmlns:cc="http://creativecommons.org/ns#"
   xmlns:rdf="http://www.w3.org/1999/02/22-rdf-syntax-ns#"
   xmlns:svg="http://www.w3.org/2000/svg"
   xmlns="http://www.w3.org/2000/svg"
   xmlns:sodipodi="http://sodipodi.sourceforge.net/DTD/sodipodi-0.dtd"
   xmlns:inkscape="http://www.inkscape.org/namespaces/inkscape"
   version="1.1"
   id="Слой_1"
   x="0px"
   y="0px"
   viewBox="0 0 113.95 85.914832"
   style="image-rendering:optimizeQuality;shape-rendering:geometricPrecision;text-rendering:geometricPrecision"
   xml:space="preserve"
   sodipodi:docname="gateway.svg"
   width="113.95"
   height="85.914833"
   inkscape:version="0.92.3 (2405546, 2018-03-11)"><metadata
   id="metadata10"><rdf:RDF><cc:Work
       rdf:about=""><dc:format>image/svg+xml</dc:format><dc:type
         rdf:resource="http://purl.org/dc/dcmitype/StillImage" /></cc:Work></rdf:RDF></metadata><defs
   id="defs8" /><sodipodi:namedview
   pagecolor="#ffffff"
   bordercolor="#666666"
   borderopacity="1"
   objecttolerance="10"
   gridtolerance="10"
   guidetolerance="10"
   inkscape:pageopacity="0"
   inkscape:pageshadow="2"
   inkscape:window-width="1366"
   inkscape:window-height="691"
   id="namedview6"
   showgrid="false"
   inkscape:zoom="2.0719929"
   inkscape:cx="151.73772"
   inkscape:cy="55.582464"
   inkscape:window-x="0"
   inkscape:window-y="0"
   inkscape:window-maximized="1"
   inkscape:current-layer="Слой_1" />
<style
   type="text/css"
   id="style2">
	.st0{fill:#4C75A3;}
</style>

<style
   id="style2-6"
   type="text/css">
	.st0{fill:#ED443E;}
	.st1{fill:#C2232F;}
</style><g
   style="stroke-width:1.31636691;image-rendering:optimizeQuality;shape-rendering:geometricPrecision;text-rendering:geometricPrecision"
   id="g829"
   transform="matrix(0.75966667,0,0,0.75966667,1.6016782e-5,6.4098522e-7)"><g
     style="stroke-width:3.68606162"
     transform="matrix(0.35712017,0,0,0.35712017,4559.6346,-851.06173)"
     id="g2152"
     inkscape:export-xdpi="182.33957"
     inkscape:export-ydpi="182.33957"><path
       inkscape:connector-curvature="0"
       id="path2148"
       d="m -12575.788,2699.1346 c -29.04,-3.745 -52.276,-16.008 -91,-48.029 -19.726,-16.312 -31.835,-23.668 -46.637,-28.334 -15.516,-4.89 -29.343,-4.513 -46.113,1.256 l -8.25,2.838 v -41.768 -41.768 l 6.75,-1.363 c 4.445,-0.898 13.749,-1.349 27.25,-1.321 17.341,0.03 22.016,0.38 30.338,2.235 29.501,6.577 55.772,20.048 83.994,43.071 24.76,20.199 33.735,26.392 44.613,30.786 16.669,6.733 32.377,5.397 49.989,-4.249 8.009,-4.387 16.586,-10.668 33.032,-24.19 24.35,-20.02 45.665,-32.483 68.586,-40.103 19.947,-6.632 26.202,-7.592 49.448,-7.592 11.275,0 21.737,0.346 23.25,0.769 l 2.75,0.769 v 40.481 c 0,45.916 0.984,41.653 -9,38.991 -13.438,-3.583 -27.224,-2.846 -41.5,2.218 -13.051,4.63 -25.274,12.523 -47.209,30.482 -32.087,26.272 -51.551,37.244 -76.123,42.912 -9.782,2.257 -42.521,3.41 -54.168,1.909 z"
       style="fill:#1463ff;fill-opacity:1;stroke-width:3.68606162"
       sodipodi:nodetypes="cccccccccccccccsccsccccc" /><path
       id="path2150"
       style="fill:#518cff;fill-opacity:1;stroke-width:3.68606162"
       d="m -12735.499,2383.1246 c -6.678,0.02 -26.657,2.326 -30.385,3.509 -1.834,0.582 -1.904,2.175 -1.904,41.932 v 41.326 l 9.054,-2.91 c 21.919,-7.049 38.392,-5.739 59.25,4.713 9.685,4.853 16.815,9.878 36.696,25.865 20.835,16.755 27.547,21.588 39.498,28.436 15.77,9.035 34.861,15.188 52.847,17.031 5.035,0.518 14.763,0.716 21.619,0.447 22.198,-0.874 38.212,-4.68 55.536,-13.201 14.206,-6.988 25.019,-14.414 49.115,-33.736 20.983,-16.825 31.072,-23.52 42.275,-28.045 17.617,-7.116 32.484,-7.617 52.371,-1.764 1.665,0.489 1.747,-1.726 1.5,-40.258 l -0.261,-40.777 -4,-0.943 c -2.2,-0.518 -11.65,-0.974 -21,-1.004 -26.458,-0.1 -45.699,4.44 -71,16.75 -15.68,7.629 -30.074,17.039 -45.5,29.744 -33.463,27.562 -45.468,33.863 -64.5,33.863 -18.599,0 -29.143,-5.38 -60.444,-30.844 -32.045,-26.07 -56.715,-39.324 -85.556,-45.968 -10.473,-2.412 -25.532,-4.196 -35.211,-4.166 z"
       inkscape:connector-curvature="0"
       sodipodi:nodetypes="ccscccccccccccccccccsccc" /></g></g></svg>