<?xml version="1.0" encoding="UTF-8" standalone="no"?>
<!-- Roman Inozemtsev: https://github.com/mir-one/  -->

<svg
   xmlns:dc="http://purl.org/dc/elements/1.1/"
   xmlns:cc="http://creativecommons.org/ns#"
   xmlns:rdf="http://www.w3.org/1999/02/22-rdf-syntax-ns#"
   xmlns:svg="http://www.w3.org/2000/svg"
   xmlns="http://www.w3.org/2000/svg"
   xmlns:sodipodi="http://sodipodi.sourceforge.net/DTD/sodipodi-0.dtd"
   xmlns:inkscape="http://www.inkscape.org/namespaces/inkscape"
   version="1.1"
   id="Слой_1"
   x="0px"
   y="0px"
   viewBox="0 0 210.92929 42.287093"
   style="image-rendering:optimizeQuality;shape-rendering:geometricPrecision;text-rendering:geometricPrecision"
   xml:space="preserve"
   sodipodi:docname="topleftlogo_hor_white.svg"
   width="210.92929"
   height="42.287094"
   inkscape:version="0.92.3 (2405546, 2018-03-11)"><metadata
     id="metadata51"><rdf:RDF><cc:Work
         rdf:about=""><dc:format>image/svg+xml</dc:format><dc:type
           rdf:resource="http://purl.org/dc/dcmitype/StillImage" /><dc:title></dc:title></cc:Work></rdf:RDF></metadata><defs
     id="defs49" /><sodipodi:namedview
     pagecolor="#ffffff"
     bordercolor="#666666"
     borderopacity="1"
     objecttolerance="10"
     gridtolerance="10"
     guidetolerance="10"
     inkscape:pageopacity="0"
     inkscape:pageshadow="2"
     inkscape:window-width="1366"
     inkscape:window-height="691"
     id="namedview47"
     showgrid="false"
     inkscape:zoom="2.6027172"
     inkscape:cx="3.79926"
     inkscape:cy="42.191216"
     inkscape:window-x="0"
     inkscape:window-y="0"
     inkscape:window-maximized="1"
     inkscape:current-layer="g927" /><style
     type="text/css"
     id="style2">
	.st0{fill:#25A9E0;}
</style><g
     id="g44"
     transform="translate(-24.845574,88.813801)"><g
       aria-label="КОМСОМОЛЬСК-НА-АМУРЕ"
       transform="translate(39.95824,-5.0980683)"
       style="font-style:normal;font-weight:normal;font-size:40px;line-height:1.25;font-family:sans-serif;letter-spacing:0px;word-spacing:0px;fill:#25a9e0;fill-opacity:1;stroke:none"
       id="flowRoot858"><g
         id="g927"
         transform="matrix(0.65687837,0,0,0.78974748,-9.0746445,-42.640789)"><g
           style="stroke-width:10.61692142"
           transform="matrix(0.14338922,0,0,0.11926505,1821.9506,-326.08139)"
           id="g2166"
           inkscape:export-xdpi="182.33957"
           inkscape:export-ydpi="182.33957"><path
             inkscape:connector-curvature="0"
             id="path2162"
             d="m -12575.788,2699.1346 c -29.04,-3.745 -52.276,-16.008 -91,-48.029 -19.726,-16.312 -31.835,-23.668 -46.637,-28.334 -15.516,-4.89 -29.343,-4.513 -46.113,1.256 l -8.25,2.838 v -41.768 -41.768 l 6.75,-1.363 c 4.445,-0.898 13.749,-1.349 27.25,-1.321 17.341,0.03 22.016,0.38 30.338,2.235 29.501,6.577 55.772,20.048 83.994,43.071 24.76,20.199 33.735,26.392 44.613,30.786 16.669,6.733 32.377,5.397 49.989,-4.249 8.009,-4.387 16.586,-10.668 33.032,-24.19 24.35,-20.02 45.665,-32.483 68.586,-40.103 19.947,-6.632 26.202,-7.592 49.448,-7.592 11.275,0 21.737,0.346 23.25,0.769 l 2.75,0.769 v 40.481 c 0,45.916 0.984,41.653 -9,38.991 -13.438,-3.583 -27.224,-2.846 -41.5,2.218 -13.051,4.63 -25.274,12.523 -47.209,30.482 -32.087,26.272 -51.551,37.244 -76.123,42.912 -9.782,2.257 -42.521,3.41 -54.168,1.909 z"
             style="fill:#1463ff;fill-opacity:1;stroke-width:10.61692142"
             sodipodi:nodetypes="cccccccccccccccsccsccccc" /><path
             id="path2164"
             style="fill:#518cff;fill-opacity:1;stroke-width:10.61692142"
             d="m -12735.499,2383.1246 c -6.678,0.02 -26.657,2.326 -30.385,3.509 -1.834,0.582 -1.904,2.175 -1.904,41.932 v 41.326 l 9.054,-2.91 c 21.919,-7.049 38.392,-5.739 59.25,4.713 9.685,4.853 16.815,9.878 36.696,25.865 20.835,16.755 27.547,21.588 39.498,28.436 15.77,9.035 34.861,15.188 52.847,17.031 5.035,0.518 14.763,0.716 21.619,0.447 22.198,-0.874 38.212,-4.68 55.536,-13.201 14.206,-6.988 25.019,-14.414 49.115,-33.736 20.983,-16.825 31.072,-23.52 42.275,-28.045 17.617,-7.116 32.484,-7.617 52.371,-1.764 1.665,0.489 1.747,-1.726 1.5,-40.258 l -0.261,-40.777 -4,-0.943 c -2.2,-0.518 -11.65,-0.974 -21,-1.004 -26.458,-0.1 -45.699,4.44 -71,16.75 -15.68,7.629 -30.074,17.039 -45.5,29.744 -33.463,27.562 -45.468,33.863 -64.5,33.863 -18.599,0 -29.143,-5.38 -60.444,-30.844 -32.045,-26.07 -56.715,-39.324 -85.556,-45.968 -10.473,-2.412 -25.532,-4.196 -35.211,-4.166 z"
             inkscape:connector-curvature="0"
             sodipodi:nodetypes="ccscccccccccccccccccsccc" /></g><g
           aria-label="AMURCOIN"
           transform="matrix(0.58423508,0,0,0.4859419,7769.879,-1478.4374)"
           style="font-style:normal;font-weight:normal;font-size:40px;line-height:1.25;font-family:sans-serif;letter-spacing:0px;word-spacing:0px;fill:#ffffff;fill-opacity:1;stroke:none;stroke-width:2.6057179"
           id="flowRoot2174"><path
             d="m -13139.305,3011.8594 h -20.547 l -3.906,11.7187 h -12.461 l 21.172,-56.875 h 10.859 l 21.29,56.875 h -12.461 z m -17.383,-9.4922 h 14.219 l -7.148,-21.2891 z"
             style="font-style:normal;font-variant:normal;font-weight:bold;font-stretch:normal;font-size:80px;font-family:roboto;-inkscape-font-specification:'roboto Bold';fill:#ffffff;stroke-width:2.6057179"
             id="path860"
             inkscape:connector-curvature="0" /><path
             d="m -13102.195,2966.7031 14.609,41.25 14.531,-41.25 h 15.391 v 56.875 h -11.758 v -15.5468 l 1.172,-26.836 -15.352,42.3828 h -8.046 l -15.313,-42.3437 1.172,26.7969 v 15.5468 h -11.719 v -56.875 z"
             style="font-style:normal;font-variant:normal;font-weight:bold;font-stretch:normal;font-size:80px;font-family:roboto;-inkscape-font-specification:'roboto Bold';fill:#ffffff;stroke-width:2.6057179"
             id="path862"
             inkscape:connector-curvature="0" /><path
             d="m -13004.305,2966.7031 v 37.461 q 0,9.3359 -5.859,14.7656 -5.82,5.4297 -15.938,5.4297 -9.961,0 -15.82,-5.2735 -5.859,-5.2734 -5.976,-14.4921 v -37.8907 h 11.718 v 37.5391 q 0,5.5859 2.657,8.1641 2.695,2.539 7.421,2.539 9.883,0 10.039,-10.3906 v -37.8516 z"
             style="font-style:normal;font-variant:normal;font-weight:bold;font-stretch:normal;font-size:80px;font-family:roboto;-inkscape-font-specification:'roboto Bold';fill:#ffffff;stroke-width:2.6057179"
             id="path864"
             inkscape:connector-curvature="0" /><path
             d="m -12973.641,3002.7578 h -9.336 v 20.8203 h -11.718 v -56.875 h 21.132 q 10.079,0 15.547,4.4922 5.469,4.4922 5.469,12.6953 0,5.8203 -2.539,9.7266 -2.5,3.8672 -7.617,6.1719 l 12.305,23.2422 v 0.5468 h -12.579 z m -9.336,-9.4922 h 9.454 q 4.414,0 6.835,-2.2265 2.422,-2.2657 2.422,-6.211 0,-4.0234 -2.304,-6.3281 -2.266,-2.3047 -6.993,-2.3047 h -9.414 z"
             style="font-style:normal;font-variant:normal;font-weight:bold;font-stretch:normal;font-size:80px;font-family:roboto;-inkscape-font-specification:'roboto Bold';fill:#ffffff;stroke-width:2.6057179"
             id="path866"
             inkscape:connector-curvature="0" /><path
             d="m -12898.953,3004.6328 q -0.664,9.1797 -6.797,14.4531 -6.094,5.2735 -16.094,5.2735 -10.937,0 -17.226,-7.3438 -6.25,-7.3828 -6.25,-20.2343 v -3.4766 q 0,-8.2031 2.89,-14.4531 2.891,-6.25 8.242,-9.5703 5.391,-3.3594 12.5,-3.3594 9.844,0 15.86,5.2734 6.015,5.2735 6.953,14.8047 h -11.719 q -0.429,-5.5078 -3.086,-7.9687 -2.617,-2.5 -8.008,-2.5 -5.859,0 -8.789,4.2187 -2.89,4.1797 -2.968,13.0078 v 4.2969 q 0,9.2187 2.773,13.4766 2.813,4.2578 8.828,4.2578 5.43,0 8.086,-2.461 2.695,-2.5 3.086,-7.6953 z"
             style="font-style:normal;font-variant:normal;font-weight:bold;font-stretch:normal;font-size:80px;font-family:roboto;-inkscape-font-specification:'roboto Bold';fill:#ffffff;stroke-width:2.6057179"
             id="path868"
             inkscape:connector-curvature="0" /><path
             d="m -12844.539,2996.4297 q 0,8.3984 -2.969,14.7266 -2.969,6.3281 -8.515,9.7656 -5.508,3.4375 -12.657,3.4375 -7.07,0 -12.617,-3.3985 -5.547,-3.3984 -8.594,-9.6875 -3.047,-6.3281 -3.086,-14.5312 v -2.8125 q 0,-8.3984 3.008,-14.7656 3.047,-6.4063 8.555,-9.8047 5.547,-3.4375 12.656,-3.4375 7.11,0 12.617,3.4375 5.547,3.3984 8.555,9.8047 3.047,6.3672 3.047,14.7265 z m -11.875,-2.5781 q 0,-8.9453 -3.203,-13.5938 -3.203,-4.6484 -9.141,-4.6484 -5.898,0 -9.101,4.6094 -3.204,4.5703 -3.243,13.4375 v 2.7734 q 0,8.7109 3.204,13.5156 3.203,4.8047 9.218,4.8047 5.899,0 9.063,-4.6094 3.164,-4.6484 3.203,-13.5156 z"
             style="font-style:normal;font-variant:normal;font-weight:bold;font-stretch:normal;font-size:80px;font-family:roboto;-inkscape-font-specification:'roboto Bold';fill:#ffffff;stroke-width:2.6057179"
             id="path870"
             inkscape:connector-curvature="0" /><path
             d="m -12823.484,3023.5781 h -11.719 v -56.875 h 11.719 z"
             style="font-style:normal;font-variant:normal;font-weight:bold;font-stretch:normal;font-size:80px;font-family:roboto;-inkscape-font-specification:'roboto Bold';fill:#ffffff;stroke-width:2.6057179"
             id="path872"
             inkscape:connector-curvature="0" /><path
             d="m -12766.414,3023.5781 h -11.719 l -22.812,-37.4218 v 37.4218 h -11.719 v -56.875 h 11.719 l 22.851,37.5 v -37.5 h 11.68 z"
             style="font-style:normal;font-variant:normal;font-weight:bold;font-stretch:normal;font-size:80px;font-family:roboto;-inkscape-font-specification:'roboto Bold';fill:#ffffff;stroke-width:2.6057179"
             id="path874"
             inkscape:connector-curvature="0" /></g></g></g></g><style
     id="style2-6"
     type="text/css">
	.st0{fill:#ED443E;}
	.st1{fill:#C2232F;}
</style><style
     id="style2-5"
     type="text/css">
	.st0{fill:#ED443E;}
	.st1{fill:#C2232F;}
	.st2{fill:#25A9E0;}
</style><style
     type="text/css"
     id="style2-35">
	.st0{fill:#ED443E;}
	.st1{fill:#C2232F;}
	.st2{fill:#25A9E0;}
</style><style
     id="style2-3"
     type="text/css">
	.st0{fill:#ED443E;}
	.st1{fill:#C2232F;}
	.st2{fill:#25A9E0;}
</style><style
     type="text/css"
     id="style2-6-3">
	.st0{fill:#ED443E;}
	.st1{fill:#C2232F;}
</style></svg>