<?xml version="1.0" encoding="UTF-8" standalone="no"?>
<!-- Roman Inozemtsev: https://github.com/mir-one/  -->

<svg
   xmlns:dc="http://purl.org/dc/elements/1.1/"
   xmlns:cc="http://creativecommons.org/ns#"
   xmlns:rdf="http://www.w3.org/1999/02/22-rdf-syntax-ns#"
   xmlns:svg="http://www.w3.org/2000/svg"
   xmlns="http://www.w3.org/2000/svg"
   xmlns:sodipodi="http://sodipodi.sourceforge.net/DTD/sodipodi-0.dtd"
   xmlns:inkscape="http://www.inkscape.org/namespaces/inkscape"
   version="1.1"
   id="Слой_1"
   x="0px"
   y="0px"
   viewBox="0 0 66.875691 66.888969"
   xml:space="preserve"
   sodipodi:docname="wB-bg-TECHNOPARK.svg"
   inkscape:version="0.92.3 (2405546, 2018-03-11)"
   width="66.875694"
   height="66.888969"><metadata
     id="metadata27"><rdf:RDF><cc:Work
         rdf:about=""><dc:format>image/svg+xml</dc:format><dc:type
           rdf:resource="http://purl.org/dc/dcmitype/StillImage" /></cc:Work></rdf:RDF></metadata><defs
     id="defs25">
	
	
	
	
	
	
	
</defs><sodipodi:namedview
     pagecolor="#ffffff"
     bordercolor="#666666"
     borderopacity="1"
     objecttolerance="10"
     gridtolerance="10"
     guidetolerance="10"
     inkscape:pageopacity="0"
     inkscape:pageshadow="2"
     inkscape:window-width="1366"
     inkscape:window-height="691"
     id="namedview23"
     showgrid="false"
     inkscape:zoom="3.6589148"
     inkscape:cx="33.437847"
     inkscape:cy="33.444487"
     inkscape:window-x="0"
     inkscape:window-y="0"
     inkscape:window-maximized="1"
     inkscape:current-layer="Слой_1" /><style
     type="text/css"
     id="style2">
	.st0{fill:#3F61AC;}
	.st1{fill:#FFFFFF;}
	.st2{fill:#2B388F;}
	.st3{fill:#58595B;}
</style><style
     id="style2-6"
     type="text/css">
	.st0{fill:#ED443E;}
	.st1{fill:#C2232F;}
</style><style
     id="style837"
     type="text/css">
	.st0{fill:#F6921E;}
	.st1{fill:#F05A28;}
	.st2{fill:#FFFFFF;}
	.st3{fill:#58595B;}
</style><style
     id="style2-3"
     type="text/css">
	.st0{fill:#ED443E;}
	.st1{fill:#C2232F;}
</style><path
     inkscape:connector-curvature="0"
     id="path828"
     d="M 33.423394,0 C 24.858413,0 16.293543,3.26051 9.7761225,9.77792 c -13.03483,13.034839 -13.03483,34.25972 0,47.29457 6.2291105,6.22904 14.4185305,9.458904 22.6086705,9.804952 8.882191,0.230705 17.88004,-2.999162 24.68586,-9.804952 6.11377,-6.1137 9.34367,-14.07437 9.80504,-22.14906 l -0.11264,-0.11038 C 67.192384,25.85044 63.963533,16.67083 57.070553,9.77793 50.553233,3.26051 41.988263,0 33.423283,0 Z"
     style="fill:#d45500;fill-opacity:1;stroke-width:1" /><path
     style="fill:#ffffff;stroke-width:1.00000012"
     d="m 33.725554,2.47558 c -4.008911,-0.0372 -7.919831,0.7146 -11.54339,2.13822 -0.0691,0.0267 -0.13823,0.053 -0.207081,0.0802 -0.002,0.001 -0.004,0.002 -0.006,0.002 C 10.528664,9.22739 2.4635325,20.375579 2.4635325,33.45298 c 0,13.69808 8.9131905,25.27882 21.1954405,29.35622 0.60136,0.21298 1.22394,0.41857 1.85889,0.58869 16.45964,4.306649 33.3743,-5.459 37.80359,-21.9893 0.55373,-2.06629 0.885611,-4.13861 1.01021,-6.19179 0,-10e-4 0,-0.002 0,-0.002 0.0465,-0.60897 0.0805,-1.23427 0.0805,-1.86175 -0.0112,-1.90709 -0.196049,-3.77335 -0.53709,-5.585031 -0.037,-0.199909 -0.0768,-0.398969 -0.11763,-0.597819 -0.002,-0.0106 -0.004,-0.0213 -0.006,-0.0319 C 61.463003,16.05816 53.153883,6.66904 41.454803,3.53427 38.871923,2.84219 36.279063,2.49901 33.725513,2.47532 Z m -0.3374,1.97997 c 7.43079,0 14.861689,2.82729 20.516169,8.48175 6.00477,6.00473 8.807101,14.01107 8.406781,21.81723 -0.30026,7.00553 -3.102591,13.91088 -8.406781,19.21506 -0.87781,0.87781 -1.79847,1.68546 -2.75376,2.42646 -1.00324,0.7714 -2.06722,1.48662 -3.19225,2.13619 -7.35424,4.24602 -15.813129,4.88064 -23.24975,2.47359 -6.68913,-2.1032 -12.634099,-6.59727 -16.3846505,-13.09355 -4.17531,-7.23166 -4.86154,-15.49708 -2.67367,-22.88878 0.42288,-1.41736 0.95622,-2.80485 1.59368,-4.14886 0.0457,-0.0951 0.0898,-0.19088 0.13645,-0.28561 1.36393,-2.76436 3.1944315,-5.35461 5.4916105,-7.65173 5.65438,-5.65446 13.08527,-8.48175 20.516171,-8.48175 z"
     id="path836"
     inkscape:connector-curvature="0" /><g
     style="clip-rule:evenodd;fill:#ffffff;fill-rule:evenodd;stroke:#ffffff;stroke-width:4.93354321;stroke-miterlimit:4;stroke-dasharray:none;stroke-opacity:1;image-rendering:optimizeQuality;shape-rendering:geometricPrecision;text-rendering:geometricPrecision"
     id="g922"
     transform="matrix(0.11006289,0,0,0.11006289,17.313634,15.978179)"><g
       id="g890"
       style="fill:#ffffff;stroke:#ffffff;stroke-width:4.93354321;stroke-miterlimit:4;stroke-dasharray:none;stroke-opacity:1"><path
         id="path846"
         d="M 123,84 11,109 V 307 H 123 Z M 293,38 v 280 c -98,0 -195,0 -293,0 V 100 L 123,73 V 0 Z M 282,47 134,13 c 0,98 0,196 0,294 h 148 z"
         class="fil0"
         inkscape:connector-curvature="0"
         style="fill:#ffffff;fill-rule:nonzero;stroke:#ffffff;stroke-width:4.93354321;stroke-miterlimit:4;stroke-dasharray:none;stroke-opacity:1" /><polygon
         id="polygon848"
         points="181,94 160,94 160,65 181,65 "
         class="fil0"
         style="fill:#ffffff;fill-rule:nonzero;stroke:#ffffff;stroke-width:4.93354321;stroke-miterlimit:4;stroke-dasharray:none;stroke-opacity:1" /><path
         id="path850"
         d="m 222,65 c 0,10 0,20 0,29 -7,0 -14,0 -21,0 0,-9 0,-19 0,-29 7,0 14,0 21,0 z"
         class="fil1"
         inkscape:connector-curvature="0"
         style="fill:#ffffff;stroke:#ffffff;stroke-width:4.93354321;stroke-miterlimit:4;stroke-dasharray:none;stroke-opacity:1" /><path
         id="path852"
         d="m 262,65 c 0,10 0,20 0,29 -7,0 -14,0 -21,0 0,-9 0,-19 0,-29 7,0 14,0 21,0 z"
         class="fil1"
         inkscape:connector-curvature="0"
         style="fill:#ffffff;stroke:#ffffff;stroke-width:4.93354321;stroke-miterlimit:4;stroke-dasharray:none;stroke-opacity:1" /><polygon
         id="polygon854"
         points="181,134 160,134 160,105 181,105 "
         class="fil0"
         style="fill:#ffffff;fill-rule:nonzero;stroke:#ffffff;stroke-width:4.93354321;stroke-miterlimit:4;stroke-dasharray:none;stroke-opacity:1" /><path
         id="path856"
         d="m 222,105 c 0,9 0,19 0,29 -7,0 -14,0 -21,0 0,-10 0,-20 0,-29 7,0 14,0 21,0 z"
         class="fil1"
         inkscape:connector-curvature="0"
         style="fill:#ffffff;stroke:#ffffff;stroke-width:4.93354321;stroke-miterlimit:4;stroke-dasharray:none;stroke-opacity:1" /><path
         id="path858"
         d="m 262,105 c 0,9 0,19 0,29 -7,0 -14,0 -21,0 0,-10 0,-20 0,-29 7,0 14,0 21,0 z"
         class="fil1"
         inkscape:connector-curvature="0"
         style="fill:#ffffff;stroke:#ffffff;stroke-width:4.93354321;stroke-miterlimit:4;stroke-dasharray:none;stroke-opacity:1" /><polygon
         id="polygon860"
         points="181,173 160,173 160,144 181,144 "
         class="fil0"
         style="fill:#ffffff;fill-rule:nonzero;stroke:#ffffff;stroke-width:4.93354321;stroke-miterlimit:4;stroke-dasharray:none;stroke-opacity:1" /><path
         id="path862"
         d="m 222,144 c 0,10 0,20 0,29 -7,0 -14,0 -21,0 0,-9 0,-19 0,-29 7,0 14,0 21,0 z"
         class="fil1"
         inkscape:connector-curvature="0"
         style="fill:#ffffff;stroke:#ffffff;stroke-width:4.93354321;stroke-miterlimit:4;stroke-dasharray:none;stroke-opacity:1" /><path
         id="path864"
         d="m 262,144 c 0,10 0,20 0,29 -7,0 -14,0 -21,0 0,-9 0,-19 0,-29 7,0 14,0 21,0 z"
         class="fil1"
         inkscape:connector-curvature="0"
         style="fill:#ffffff;stroke:#ffffff;stroke-width:4.93354321;stroke-miterlimit:4;stroke-dasharray:none;stroke-opacity:1" /><polygon
         id="polygon866"
         points="181,214 160,214 160,185 181,185 "
         class="fil0"
         style="fill:#ffffff;fill-rule:nonzero;stroke:#ffffff;stroke-width:4.93354321;stroke-miterlimit:4;stroke-dasharray:none;stroke-opacity:1" /><path
         id="path868"
         d="m 222,185 c 0,10 0,19 0,29 -7,0 -14,0 -21,0 0,-10 0,-19 0,-29 7,0 14,0 21,0 z"
         class="fil1"
         inkscape:connector-curvature="0"
         style="fill:#ffffff;stroke:#ffffff;stroke-width:4.93354321;stroke-miterlimit:4;stroke-dasharray:none;stroke-opacity:1" /><path
         id="path870"
         d="m 262,185 c 0,10 0,19 0,29 -7,0 -14,0 -21,0 0,-10 0,-19 0,-29 7,0 14,0 21,0 z"
         class="fil1"
         inkscape:connector-curvature="0"
         style="fill:#ffffff;stroke:#ffffff;stroke-width:4.93354321;stroke-miterlimit:4;stroke-dasharray:none;stroke-opacity:1" /><polygon
         id="polygon872"
         points="181,252 160,252 160,224 181,224 "
         class="fil0"
         style="fill:#ffffff;fill-rule:nonzero;stroke:#ffffff;stroke-width:4.93354321;stroke-miterlimit:4;stroke-dasharray:none;stroke-opacity:1" /><path
         id="path874"
         d="m 222,224 c 0,9 0,19 0,28 -7,0 -14,0 -21,0 0,-9 0,-19 0,-28 7,0 14,0 21,0 z"
         class="fil1"
         inkscape:connector-curvature="0"
         style="fill:#ffffff;stroke:#ffffff;stroke-width:4.93354321;stroke-miterlimit:4;stroke-dasharray:none;stroke-opacity:1" /><path
         id="path876"
         d="m 262,224 c 0,9 0,19 0,28 -7,0 -14,0 -21,0 0,-9 0,-19 0,-28 7,0 14,0 21,0 z"
         class="fil1"
         inkscape:connector-curvature="0"
         style="fill:#ffffff;stroke:#ffffff;stroke-width:4.93354321;stroke-miterlimit:4;stroke-dasharray:none;stroke-opacity:1" /><polygon
         id="polygon878"
         points="60,173 39,173 39,144 60,144 "
         class="fil0"
         style="fill:#ffffff;fill-rule:nonzero;stroke:#ffffff;stroke-width:4.93354321;stroke-miterlimit:4;stroke-dasharray:none;stroke-opacity:1" /><path
         id="path880"
         d="m 100,144 c 0,10 0,20 0,29 -7,0 -14,0 -21,0 0,-9 0,-19 0,-29 7,0 14,0 21,0 z"
         class="fil1"
         inkscape:connector-curvature="0"
         style="fill:#ffffff;stroke:#ffffff;stroke-width:4.93354321;stroke-miterlimit:4;stroke-dasharray:none;stroke-opacity:1" /><polygon
         id="polygon882"
         points="60,214 39,214 39,185 60,185 "
         class="fil0"
         style="fill:#ffffff;fill-rule:nonzero;stroke:#ffffff;stroke-width:4.93354321;stroke-miterlimit:4;stroke-dasharray:none;stroke-opacity:1" /><path
         id="path884"
         d="m 100,185 c 0,10 0,19 0,29 -7,0 -14,0 -21,0 0,-10 0,-19 0,-29 7,0 14,0 21,0 z"
         class="fil1"
         inkscape:connector-curvature="0"
         style="fill:#ffffff;stroke:#ffffff;stroke-width:4.93354321;stroke-miterlimit:4;stroke-dasharray:none;stroke-opacity:1" /><polygon
         id="polygon886"
         points="60,252 39,252 39,224 60,224 "
         class="fil0"
         style="fill:#ffffff;fill-rule:nonzero;stroke:#ffffff;stroke-width:4.93354321;stroke-miterlimit:4;stroke-dasharray:none;stroke-opacity:1" /><path
         id="path888"
         d="m 100,224 c 0,9 0,19 0,28 -7,0 -14,0 -21,0 0,-9 0,-19 0,-28 7,0 14,0 21,0 z"
         class="fil1"
         inkscape:connector-curvature="0"
         style="fill:#ffffff;stroke:#ffffff;stroke-width:4.93354321;stroke-miterlimit:4;stroke-dasharray:none;stroke-opacity:1" /></g></g></svg>