<?xml version="1.0" encoding="UTF-8" standalone="no"?>
<!-- Roman Inozemtsev: https://github.com/mir-one/  -->

<svg
   xmlns:dc="http://purl.org/dc/elements/1.1/"
   xmlns:cc="http://creativecommons.org/ns#"
   xmlns:rdf="http://www.w3.org/1999/02/22-rdf-syntax-ns#"
   xmlns:svg="http://www.w3.org/2000/svg"
   xmlns="http://www.w3.org/2000/svg"
   xmlns:sodipodi="http://sodipodi.sourceforge.net/DTD/sodipodi-0.dtd"
   xmlns:inkscape="http://www.inkscape.org/namespaces/inkscape"
   version="1.1"
   id="Слой_1"
   x="0px"
   y="0px"
   viewBox="0 0 66.875691 66.888969"
   xml:space="preserve"
   sodipodi:docname="wB-bg-NEDRA.svg"
   inkscape:version="0.92.3 (2405546, 2018-03-11)"
   width="66.875694"
   height="66.888969"><metadata
     id="metadata27"><rdf:RDF><cc:Work
         rdf:about=""><dc:format>image/svg+xml</dc:format><dc:type
           rdf:resource="http://purl.org/dc/dcmitype/StillImage" /></cc:Work></rdf:RDF></metadata><defs
     id="defs25">
	
	
	
	
	
	
	
</defs><sodipodi:namedview
     pagecolor="#ffffff"
     bordercolor="#666666"
     borderopacity="1"
     objecttolerance="10"
     gridtolerance="10"
     guidetolerance="10"
     inkscape:pageopacity="0"
     inkscape:pageshadow="2"
     inkscape:window-width="1366"
     inkscape:window-height="691"
     id="namedview23"
     showgrid="false"
     inkscape:zoom="3.6589148"
     inkscape:cx="33.437847"
     inkscape:cy="33.444487"
     inkscape:window-x="0"
     inkscape:window-y="0"
     inkscape:window-maximized="1"
     inkscape:current-layer="Слой_1" /><style
     type="text/css"
     id="style2">
	.st0{fill:#3F61AC;}
	.st1{fill:#FFFFFF;}
	.st2{fill:#2B388F;}
	.st3{fill:#58595B;}
</style><style
     id="style2-6"
     type="text/css">
	.st0{fill:#ED443E;}
	.st1{fill:#C2232F;}
</style><style
     id="style837"
     type="text/css">
	.st0{fill:#F6921E;}
	.st1{fill:#F05A28;}
	.st2{fill:#FFFFFF;}
	.st3{fill:#58595B;}
</style><style
     id="style2-3"
     type="text/css">
	.st0{fill:#ED443E;}
	.st1{fill:#C2232F;}
</style><path
     style="fill:#d4aa00;fill-opacity:1;stroke-width:1"
     d="m 33.423391,0 c -8.564979,0 -17.12985,3.26051 -23.6472685,9.77792 -13.03483,13.034839 -13.03483,34.25972 0,47.29457 6.2291085,6.22904 14.4185285,9.458904 22.6086685,9.804952 8.882192,0.230705 17.880043,-2.999162 24.685863,-9.804952 6.113769,-6.1137 9.343669,-14.07437 9.805039,-22.14906 l -0.11264,-0.11038 C 67.192384,25.85044 63.963533,16.67083 57.070554,9.77793 50.553235,3.26051 41.988264,0 33.423282,0 Z"
     id="path1155"
     inkscape:connector-curvature="0" /><path
     inkscape:connector-curvature="0"
     id="path1157"
     d="m 33.725552,2.47558 c -4.00891,-0.0372 -7.919831,0.7146 -11.543391,2.13822 -0.0691,0.0267 -0.13823,0.053 -0.20708,0.0802 -0.002,0.001 -0.004,0.002 -0.006,0.002 -11.44042,4.53139 -19.5055485,15.679579 -19.5055485,28.75698 0,13.69808 8.9131885,25.27882 21.1954385,29.35622 0.60136,0.21298 1.22394,0.41857 1.85889,0.58869 16.459642,4.306649 33.374302,-5.459 37.803591,-21.9893 0.55373,-2.06629 0.88561,-4.13861 1.01021,-6.19179 0,-10e-4 0,-0.002 0,-0.002 0.0465,-0.60897 0.0805,-1.23427 0.0805,-1.86175 -0.0112,-1.90709 -0.19605,-3.77335 -0.537089,-5.585031 -0.037,-0.199909 -0.0768,-0.398969 -0.117631,-0.597819 -0.002,-0.0106 -0.004,-0.0213 -0.006,-0.0319 C 61.463003,16.05816 53.153883,6.66904 41.454802,3.53427 38.871921,2.84219 36.279061,2.49901 33.725511,2.47532 Z m -0.3374,1.97997 c 7.430791,0 14.861691,2.82729 20.516171,8.48175 6.00477,6.00473 8.8071,14.01107 8.40678,21.81723 -0.30026,7.00553 -3.10259,13.91088 -8.40678,19.21506 -0.87781,0.87781 -1.79847,1.68546 -2.75376,2.42646 -1.00324,0.7714 -2.06722,1.48662 -3.19225,2.13619 -7.354241,4.24602 -15.813131,4.88064 -23.249751,2.47359 -6.68913,-2.1032 -12.6341,-6.59727 -16.3846495,-13.09355 -4.17531,-7.23166 -4.86154,-15.49708 -2.67367,-22.88878 0.42288,-1.41736 0.95622,-2.80485 1.59368,-4.14886 0.0457,-0.0951 0.0898,-0.19088 0.13645,-0.28561 1.36393,-2.76436 3.1944295,-5.35461 5.4916085,-7.65173 5.65438,-5.65446 13.08527,-8.48175 20.516171,-8.48175 z"
     style="fill:#ffffff;stroke-width:1.00000012" /><g
     style="fill:#ffffff;stroke:#ffffff;stroke-width:1.02856588;stroke-miterlimit:4;stroke-dasharray:none;stroke-opacity:1"
     id="g951"
     transform="matrix(0.388891,0,0,0.388891,13.992891,13.99969)"><path
       id="path940"
       d="m 91.933,37.231 c -0.004,-0.01 -0.006,-0.023 -0.012,-0.033 L 83.595,21.669 c 0,0 -0.006,-0.002 -0.004,-0.005 -0.012,-0.017 -0.024,-0.028 -0.034,-0.042 -0.037,-0.068 -0.093,-0.117 -0.142,-0.175 -0.059,-0.076 -0.111,-0.149 -0.183,-0.21 -0.021,-0.021 -0.031,-0.051 -0.054,-0.069 -0.015,-0.01 -0.027,-0.01 -0.036,-0.018 C 83.079,21.1 82.999,21.073 82.93,21.034 82.868,21.001 82.826,20.947 82.761,20.921 L 49.793,7.506 C 49.651,7.448 49.506,7.418 49.357,7.401 49.345,7.4 49.336,7.393 49.322,7.391 49.298,7.388 49.277,7.4 49.253,7.396 49.071,7.39 48.888,7.404 48.712,7.455 48.694,7.463 48.676,7.46 48.658,7.466 48.529,7.508 48.403,7.564 48.286,7.639 L 16.709,27.534 c -0.012,0.006 -0.019,0.013 -0.031,0.018 l -0.039,0.025 c -0.043,0.024 -0.068,0.073 -0.106,0.103 -0.125,0.098 -0.249,0.198 -0.342,0.33 -0.058,0.081 -0.085,0.173 -0.129,0.261 -0.045,0.094 -0.109,0.172 -0.137,0.273 l -6.41,23.757 c -0.015,0.054 0,0.101 -0.011,0.156 -0.018,0.103 -0.027,0.203 -0.026,0.306 10e-4,0.054 -0.01,0.107 -0.004,0.166 0.006,0.06 0.032,0.11 0.046,0.17 0.021,0.089 0.048,0.179 0.086,0.269 0.023,0.052 0.033,0.11 0.062,0.159 0.031,0.062 0.081,0.103 0.12,0.153 0.028,0.047 0.039,0.098 0.076,0.137 l 21.34,24.495 c 0.061,0.069 0.135,0.116 0.204,0.172 0.052,0.044 0.1,0.095 0.161,0.136 0.159,0.098 0.33,0.178 0.509,0.216 0,0 10e-4,0 0.002,0.003 0.062,0.013 0.127,0.025 0.193,0.03 l 31.644,3.389 c 0.025,0.005 0.052,-0.01 0.079,-0.008 0.064,0.003 0.129,0.016 0.19,0.008 0.051,0 0.106,-0.013 0.158,-0.022 0.063,-0.014 0.129,-0.021 0.191,-0.034 0.014,-0.005 0.029,-0.002 0.041,-0.01 0.021,-0.003 0.041,-0.016 0.059,-0.023 0.06,-0.022 0.114,-0.051 0.175,-0.082 0.079,-0.038 0.161,-0.079 0.239,-0.133 0.023,-0.021 0.052,-0.031 0.076,-0.052 0.013,-0.008 0.018,-0.018 0.025,-0.028 0.021,-0.018 0.034,-0.035 0.051,-0.056 0.041,-0.039 0.092,-0.064 0.13,-0.108 L 84.364,60.175 c 0.003,-0.002 0.005,-0.008 0.008,-0.01 0.059,-0.072 0.094,-0.162 0.144,-0.241 0.045,-0.077 0.1,-0.148 0.132,-0.23 0.009,-0.023 0.029,-0.041 0.04,-0.069 l 0.005,-0.013 c -0.001,-0.003 -0.001,-0.003 -0.001,-0.003 l 7.334,-21.086 c 0.002,-0.013 0,-0.023 0.002,-0.036 0.043,-0.123 0.045,-0.259 0.055,-0.393 0.004,-0.082 0.033,-0.161 0.025,-0.243 -0.008,-0.092 -0.048,-0.182 -0.072,-0.274 -0.03,-0.12 -0.05,-0.238 -0.103,-0.346 z M 50.606,11.405 75.418,21.502 49.404,24.255 Z M 48.325,27.694 79.992,24.34 74.078,49.348 33.724,57.387 30.766,45.262 Z M 47.211,12.223 45.98,25.366 29.14,42.21 19.894,29.434 Z M 18.214,32.75 27.413,45.456 30.199,56.887 13.12,51.623 Z M 33.27,75.654 16.163,56.017 l 15.61,4.812 25.873,17.434 z m 30.542,2.782 -27.107,-18.272 38.149,-7.598 6.048,6.536 z m 18.662,-22.497 -5.22,-5.65 5.487,-23.214 5.924,11.043 z M 12.984,24.844 c 0.346,0 0.692,-0.136 0.95,-0.406 0.501,-0.523 0.48,-1.354 -0.042,-1.856 L 7.22,16.209 c -0.525,-0.5 -1.356,-0.482 -1.856,0.042 -0.5,0.524 -0.482,1.354 0.042,1.856 l 6.672,6.374 c 0.255,0.243 0.581,0.363 0.906,0.363 z m 4.394,-2.634 c 0.031,10e-4 0.062,0.002 0.094,0.002 0.683,0 1.258,-0.528 1.309,-1.22 l 0.387,-5.458 c 0.051,-0.723 -0.495,-1.351 -1.218,-1.402 -0.708,-0.04 -1.35,0.493 -1.402,1.216 l -0.387,5.458 c -0.052,0.725 0.494,1.353 1.217,1.404 z m -5.05,6.357 c 0,-0.726 -0.587,-1.312 -1.312,-1.312 H 8.495 c -0.724,0 -1.312,0.587 -1.312,1.312 0,0.724 0.588,1.312 1.312,1.312 h 2.521 c 0.725,10e-4 1.312,-0.587 1.312,-1.312 z M 83.942,17.35 c 0.101,0.023 0.203,0.035 0.304,0.035 0.595,0 1.133,-0.406 1.275,-1.01 l 2.126,-8.98 C 87.815,6.689 87.377,5.983 86.673,5.815 85.97,5.649 85.26,6.086 85.094,6.791 l -2.127,8.979 c -0.167,0.706 0.27,1.412 0.975,1.58 z M 94.863,15.604 C 94.542,14.956 93.758,14.687 93.105,15.009 L 88.2,17.435 c -0.65,0.32 -0.917,1.108 -0.595,1.758 0.229,0.463 0.693,0.73 1.178,0.73 0.194,0 0.394,-0.043 0.58,-0.136 l 4.905,-2.425 c 0.651,-0.32 0.918,-1.108 0.595,-1.758 z M 76.709,82.931 69.443,82.163 c -0.73,-0.087 -1.369,0.446 -1.443,1.166 -0.076,0.722 0.446,1.368 1.167,1.443 l 7.266,0.768 c 0.048,0.006 0.094,0.008 0.14,0.008 0.663,0 1.233,-0.501 1.304,-1.174 0.076,-0.722 -0.447,-1.367 -1.168,-1.443 z m -8.604,4.545 c -0.348,-0.634 -1.145,-0.87 -1.781,-0.522 -0.636,0.347 -0.871,1.145 -0.523,1.781 l 2.622,4.803 c 0.239,0.436 0.688,0.683 1.154,0.683 0.212,0 0.428,-0.051 0.628,-0.16 0.636,-0.347 0.87,-1.145 0.522,-1.781 z M 62.19,86.783 c -0.644,-0.333 -1.437,-0.089 -1.772,0.553 l -1.344,2.56 c -0.337,0.643 -0.09,1.436 0.553,1.772 0.194,0.102 0.403,0.15 0.608,0.15 0.474,0 0.93,-0.255 1.164,-0.702 l 1.344,-2.56 c 0.337,-0.642 0.089,-1.435 -0.553,-1.773 z"
       inkscape:connector-curvature="0"
       style="fill:#ffffff;stroke:#ffffff;stroke-width:1.02856588;stroke-miterlimit:4;stroke-dasharray:none;stroke-opacity:1" /></g></svg>