<?xml version="1.0" encoding="UTF-8" standalone="no"?>
<!-- Roman Inozemtsev: https://github.com/mir-one/  -->

<svg
   xmlns:dc="http://purl.org/dc/elements/1.1/"
   xmlns:cc="http://creativecommons.org/ns#"
   xmlns:rdf="http://www.w3.org/1999/02/22-rdf-syntax-ns#"
   xmlns:svg="http://www.w3.org/2000/svg"
   xmlns="http://www.w3.org/2000/svg"
   xmlns:xlink="http://www.w3.org/1999/xlink"
   xmlns:sodipodi="http://sodipodi.sourceforge.net/DTD/sodipodi-0.dtd"
   xmlns:inkscape="http://www.inkscape.org/namespaces/inkscape"
   version="1.1"
   id="Слой_1"
   x="0px"
   y="0px"
   viewBox="0 0 66.900883 67"
   xml:space="preserve"
   sodipodi:docname="wB-bg-AMUR.svg"
   inkscape:version="0.92.3 (2405546, 2018-03-11)"
   width="66.900887"
   height="67"><metadata
     id="metadata27"><rdf:RDF><cc:Work
         rdf:about=""><dc:format>image/svg+xml</dc:format><dc:type
           rdf:resource="http://purl.org/dc/dcmitype/StillImage" /></cc:Work></rdf:RDF></metadata><defs
     id="defs25">
	
	
	
	
	
	
	
<linearGradient
   inkscape:collect="always"
   xlink:href="#linearGradient1913"
   id="linearGradient1915"
   x1="-13987.585"
   y1="2798.7959"
   x2="-13757.8"
   y2="2182.2871"
   gradientUnits="userSpaceOnUse" /><linearGradient
   inkscape:collect="always"
   id="linearGradient1913"><stop
     style="stop-color:#1463ff;stop-opacity:1"
     offset="0"
     id="stop1909" /><stop
     style="stop-color:#518cff;stop-opacity:1"
     offset="1"
     id="stop1911" /></linearGradient><style
   id="style842"
   type="text/css">
   
    .fil1 {fill:#000000}
    .fil0 {fill:#000000;fill-rule:nonzero}
   
  </style><style
   id="style953"
   type="text/css">
   
    .fil0 {fill:#000000;fill-rule:nonzero}
   
  </style></defs><sodipodi:namedview
     pagecolor="#ffffff"
     bordercolor="#666666"
     borderopacity="1"
     objecttolerance="10"
     gridtolerance="10"
     guidetolerance="10"
     inkscape:pageopacity="0"
     inkscape:pageshadow="2"
     inkscape:window-width="1366"
     inkscape:window-height="691"
     id="namedview23"
     showgrid="false"
     inkscape:zoom="0.64681087"
     inkscape:cx="-108.74812"
     inkscape:cy="439.75076"
     inkscape:window-x="0"
     inkscape:window-y="0"
     inkscape:window-maximized="1"
     inkscape:current-layer="Слой_1" /><style
     type="text/css"
     id="style2">
	.st0{fill:#3F61AC;}
	.st1{fill:#FFFFFF;}
	.st2{fill:#2B388F;}
	.st3{fill:#58595B;}
</style><style
     id="style2-6"
     type="text/css">
	.st0{fill:#ED443E;}
	.st1{fill:#C2232F;}
</style><style
     id="style837"
     type="text/css">
	.st0{fill:#F6921E;}
	.st1{fill:#F05A28;}
	.st2{fill:#FFFFFF;}
	.st3{fill:#58595B;}
</style><style
     id="style2-3"
     type="text/css">
	.st0{fill:#ED443E;}
	.st1{fill:#C2232F;}
</style><g
     id="g1922"
     transform="matrix(0.10400573,0,0,0.10400573,1477.1697,-224.44319)"
     style="stroke-width:9.61485577"
     inkscape:export-xdpi="182.33957"
     inkscape:export-ydpi="182.33957"><path
       inkscape:connector-curvature="0"
       id="path1899"
       d="m -13880.565,2159.0339 c -82.351,0 -164.701,31.3493 -227.365,94.0133 -125.328,125.3281 -125.328,329.4022 0,454.7304 59.892,59.8913 138.632,90.946 217.379,94.2732 85.401,2.2182 171.914,-28.8365 237.351,-94.2732 58.783,-58.7823 89.838,-135.323 94.274,-212.96 l -1.083,-1.0613 c 4.128,-86.1742 -26.917,-174.4348 -93.192,-240.709 -62.663,-62.6641 -145.014,-94.0134 -227.365,-94.0134 z"
       style="fill:url(#linearGradient1915);fill-opacity:1;stroke-width:9.61485481" /><g
       id="g1905"
       transform="matrix(0.80462799,0,0,0.80462799,-3776.089,435.66158)"
       style="fill:#ffffff;stroke-width:11.94944286"><path
         sodipodi:nodetypes="cccccccccccccccsccsccccc"
         style="fill:#ffffff;fill-opacity:1;stroke-width:11.94944286"
         d="m -12575.788,2699.1346 c -29.04,-3.745 -52.276,-16.008 -91,-48.029 -19.726,-16.312 -31.835,-23.668 -46.637,-28.334 -15.516,-4.89 -29.343,-4.513 -46.113,1.256 l -8.25,2.838 v -41.768 -41.768 l 6.75,-1.363 c 4.445,-0.898 13.749,-1.349 27.25,-1.321 17.341,0.03 22.016,0.38 30.338,2.235 29.501,6.577 55.772,20.048 83.994,43.071 24.76,20.199 33.735,26.392 44.613,30.786 16.669,6.733 32.377,5.397 49.989,-4.249 8.009,-4.387 16.586,-10.668 33.032,-24.19 24.35,-20.02 45.665,-32.483 68.586,-40.103 19.947,-6.632 26.202,-7.592 49.448,-7.592 11.275,0 21.737,0.346 23.25,0.769 l 2.75,0.769 v 40.481 c 0,45.916 0.984,41.653 -9,38.991 -13.438,-3.583 -27.224,-2.846 -41.5,2.218 -13.051,4.63 -25.274,12.523 -47.209,30.482 -32.087,26.272 -51.551,37.244 -76.123,42.912 -9.782,2.257 -42.521,3.41 -54.168,1.909 z"
         id="path1901"
         inkscape:connector-curvature="0" /><path
         sodipodi:nodetypes="ccscccccccccccccccccsccc"
         inkscape:connector-curvature="0"
         d="m -12735.499,2383.1246 c -6.678,0.02 -26.657,2.326 -30.385,3.509 -1.834,0.582 -1.904,2.175 -1.904,41.932 v 41.326 l 9.054,-2.91 c 21.919,-7.049 38.392,-5.739 59.25,4.713 9.685,4.853 16.815,9.878 36.696,25.865 20.835,16.755 27.547,21.588 39.498,28.436 15.77,9.035 34.861,15.188 52.847,17.031 5.035,0.518 14.763,0.716 21.619,0.447 22.198,-0.874 38.212,-4.68 55.536,-13.201 14.206,-6.988 25.019,-14.414 49.115,-33.736 20.983,-16.825 31.072,-23.52 42.275,-28.045 17.617,-7.116 32.484,-7.617 52.371,-1.764 1.665,0.489 1.747,-1.726 1.5,-40.258 l -0.261,-40.777 -4,-0.943 c -2.2,-0.518 -11.65,-0.974 -21,-1.004 -26.458,-0.1 -45.699,4.44 -71,16.75 -15.68,7.629 -30.074,17.039 -45.5,29.744 -33.463,27.562 -45.468,33.863 -64.5,33.863 -18.599,0 -29.143,-5.38 -60.444,-30.844 -32.045,-26.07 -56.715,-39.324 -85.556,-45.968 -10.473,-2.412 -25.532,-4.196 -35.211,-4.166 z"
         style="fill:#ffffff;fill-opacity:1;stroke-width:11.94944286"
         id="path1903" /></g><path
       style="fill:#ffffff;stroke-width:9.61485577"
       d="m -13877.662,2182.8363 c -38.545,-0.3576 -76.148,6.8707 -110.988,20.5586 -0.664,0.2571 -1.329,0.5098 -1.991,0.7715 -0.02,0.01 -0.04,0.016 -0.06,0.023 -109.998,43.5687 -187.543,150.7569 -187.543,276.4942 0,131.7051 85.699,243.0522 203.791,282.2558 5.782,2.0478 11.768,4.0245 17.873,5.6602 158.257,41.4078 320.889,-52.4875 363.476,-211.4239 5.324,-19.8671 8.515,-39.7922 9.713,-59.5332 0,-0.01 0,-0.014 0,-0.021 0.447,-5.8551 0.774,-11.8673 0.774,-17.9004 -0.108,-18.3364 -1.885,-36.2803 -5.164,-53.6993 -0.356,-1.9221 -0.738,-3.836 -1.131,-5.748 -0.02,-0.1019 -0.04,-0.2048 -0.06,-0.3066 -22.003,-106.5339 -101.894,-196.8089 -214.379,-226.9493 -24.834,-6.6542 -49.764,-9.9538 -74.316,-10.1816 z m -3.244,19.0371 c 71.446,0 142.893,27.184 197.26,81.5508 57.735,57.7346 84.679,134.7144 80.83,209.7695 -2.887,67.3571 -29.831,133.7511 -80.83,184.75 -8.44,8.44 -17.292,16.2055 -26.477,23.3301 -9.646,7.4169 -19.876,14.2936 -30.693,20.5391 -70.71,40.8249 -152.041,46.9267 -223.543,23.7832 -64.315,-20.2219 -121.475,-63.4318 -157.536,-125.8926 -40.145,-69.5313 -46.743,-149.0021 -25.707,-220.0723 4.066,-13.6277 9.194,-26.9682 15.323,-39.8906 0.439,-0.9147 0.863,-1.8353 1.312,-2.7461 13.114,-26.579 30.714,-51.4838 52.801,-73.5703 54.366,-54.3668 125.813,-81.5508 197.26,-81.5508 z"
       id="path1907"
       inkscape:connector-curvature="0" /></g></svg>