<?xml version="1.0" encoding="UTF-8" standalone="no"?>
<!-- Roman Inozemtsev: https://github.com/mir-one/  -->

<svg
   xmlns:dc="http://purl.org/dc/elements/1.1/"
   xmlns:cc="http://creativecommons.org/ns#"
   xmlns:rdf="http://www.w3.org/1999/02/22-rdf-syntax-ns#"
   xmlns:svg="http://www.w3.org/2000/svg"
   xmlns="http://www.w3.org/2000/svg"
   xmlns:sodipodi="http://sodipodi.sourceforge.net/DTD/sodipodi-0.dtd"
   xmlns:inkscape="http://www.inkscape.org/namespaces/inkscape"
   version="1.1"
   id="Слой_1"
   x="0px"
   y="0px"
   viewBox="0 0 66.875691 66.888969"
   xml:space="preserve"
   sodipodi:docname="wB-bg-PRODUCTION.svg"
   inkscape:version="0.92.3 (2405546, 2018-03-11)"
   width="66.875694"
   height="66.888969"><metadata
     id="metadata27"><rdf:RDF><cc:Work
         rdf:about=""><dc:format>image/svg+xml</dc:format><dc:type
           rdf:resource="http://purl.org/dc/dcmitype/StillImage" /></cc:Work></rdf:RDF></metadata><defs
     id="defs25">
	
	
	
	
	
	
	
</defs><sodipodi:namedview
     pagecolor="#ffffff"
     bordercolor="#666666"
     borderopacity="1"
     objecttolerance="10"
     gridtolerance="10"
     guidetolerance="10"
     inkscape:pageopacity="0"
     inkscape:pageshadow="2"
     inkscape:window-width="1366"
     inkscape:window-height="691"
     id="namedview23"
     showgrid="false"
     inkscape:zoom="3.6589148"
     inkscape:cx="-26.159744"
     inkscape:cy="103.28329"
     inkscape:window-x="0"
     inkscape:window-y="0"
     inkscape:window-maximized="1"
     inkscape:current-layer="Слой_1" /><style
     type="text/css"
     id="style2">
	.st0{fill:#3F61AC;}
	.st1{fill:#FFFFFF;}
	.st2{fill:#2B388F;}
	.st3{fill:#58595B;}
</style><style
     id="style2-6"
     type="text/css">
	.st0{fill:#ED443E;}
	.st1{fill:#C2232F;}
</style><style
     id="style837"
     type="text/css">
	.st0{fill:#F6921E;}
	.st1{fill:#F05A28;}
	.st2{fill:#FFFFFF;}
	.st3{fill:#58595B;}
</style><style
     id="style2-3"
     type="text/css">
	.st0{fill:#ED443E;}
	.st1{fill:#C2232F;}
</style><path
     style="fill:#aa00d4;fill-opacity:1;stroke-width:1"
     d="m 33.423392,0 c -8.56498,0 -17.12985,3.26051 -23.6472695,9.77792 -13.03483,13.03484 -13.03483,34.25972 0,47.294567 6.2291095,6.22904 14.4185305,9.45891 22.6086705,9.80495 8.88219,0.23071 17.88004,-2.99916 24.68586,-9.80495 6.11377,-6.113697 9.34367,-14.074367 9.80504,-22.149057 l -0.11264,-0.11038 C 67.192383,25.85044 63.963533,16.67083 57.070553,9.77793 50.553233,3.26051 41.988263,0 33.423283,0 Z"
     id="path1201"
     inkscape:connector-curvature="0" /><path
     inkscape:connector-curvature="0"
     id="path1203"
     d="m 33.725552,2.47558 c -4.00891,-0.0372 -7.919829,0.7146 -11.54339,2.13822 -0.0691,0.0267 -0.13823,0.053 -0.20708,0.0802 -0.002,0.001 -0.004,0.002 -0.006,0.002 -11.44042,4.53139 -19.5055495,15.67958 -19.5055495,28.75698 0,13.69808 8.9131895,25.278817 21.1954395,29.356217 0.60136,0.21298 1.22394,0.41857 1.85889,0.58869 16.45964,4.30665 33.3743,-5.459 37.80359,-21.989297 0.55373,-2.06629 0.88561,-4.13861 1.01021,-6.19179 0,-10e-4 0,-0.002 0,-0.002 0.0465,-0.60897 0.0805,-1.23427 0.0805,-1.86175 -0.0112,-1.90709 -0.19605,-3.77335 -0.53709,-5.58503 -0.037,-0.19991 -0.0768,-0.39897 -0.11763,-0.59782 -0.002,-0.0106 -0.004,-0.0213 -0.006,-0.0319 C 61.463002,16.05816 53.153882,6.66904 41.454802,3.53427 38.871922,2.84219 36.279062,2.49901 33.725512,2.47532 Z m -0.3374,1.97997 c 7.43079,0 14.86169,2.82729 20.51617,8.48175 6.00477,6.00473 8.8071,14.01107 8.40678,21.81723 -0.30026,7.00553 -3.10259,13.91088 -8.40678,19.215057 -0.87781,0.87781 -1.79847,1.68546 -2.75376,2.42646 -1.00324,0.7714 -2.06722,1.48662 -3.19225,2.13619 -7.35424,4.24602 -15.81313,4.88064 -23.24975,2.47359 -6.68913,-2.1032 -12.6341,-6.59727 -16.3846495,-13.093547 -4.17531,-7.23166 -4.86154,-15.49708 -2.67367,-22.88878 0.42288,-1.41736 0.95622,-2.80485 1.59368,-4.14886 0.0457,-0.0951 0.0898,-0.19088 0.13645,-0.28561 1.36393,-2.76436 3.1944295,-5.35461 5.4916095,-7.65173 5.65438,-5.65446 13.085269,-8.48175 20.51617,-8.48175 z"
     style="fill:#ffffff;stroke-width:1.00000012" /><g
     style="fill:#ffffff;stroke:#ffffff;stroke-width:1.1314286;stroke-miterlimit:4;stroke-dasharray:none;stroke-opacity:1"
     id="g1059"
     transform="matrix(0.53030303,0,0,0.53030303,15.937842,15.94449)"><g
       id="g1038"
       style="fill:#ffffff;stroke:#ffffff;stroke-width:1.1314286;stroke-miterlimit:4;stroke-dasharray:none;stroke-opacity:1"><g
         id="g1020"
         style="fill:#ffffff;stroke:#ffffff;stroke-width:1.1314286;stroke-miterlimit:4;stroke-dasharray:none;stroke-opacity:1"><path
           id="path1018"
           d="M 41.2,52 C 41.7,51.9 42,51.5 42,51 V 38.3 c 0,0 0,0 0,0 0,0 0,0 0,0 V 34 c 0,-0.6 -0.4,-1 -1,-1 -1.9,0 -15.3,0 -17.1,0 -0.6,0 -1,0.4 -1,1 V 50 H 21.1 V 38.3 c 0,0 0,0 0,0 0,0 0,0 0,0 V 34 c 0,-0.6 -0.4,-1 -1,-1 C 18.2,33 4.8,33 3,33 2.4,33 2,33.4 2,34 v 17 c 0,0.5 0.3,0.9 0.8,1 -1.7,1.4 -2.8,3.6 -2.8,6 0,4.4 3.6,8 8,8 h 28 c 4.4,0 8,-3.6 8,-8 0,-2.4 -1.1,-4.6 -2.8,-6 z M 40,37.3 H 36.1 V 34.9 H 40 Z m -5.9,-2.4 v 3.8 l -1,-0.9 c -0.2,-0.2 -0.4,-0.2 -0.7,-0.2 -0.2,0 -0.5,0.1 -0.7,0.2 l -1,0.9 v -3.8 z m -5.3,0 v 2.4 h -3.9 v -2.4 z m -3.9,4.4 h 3.9 v 1.6 c 0,0.4 0.2,0.7 0.6,0.9 0.4,0.2 0.8,0.1 1.1,-0.2 l 2,-1.8 2,1.8 c 0.3,0.3 0.7,0.3 1.1,0.2 0.4,-0.2 0.6,-0.5 0.6,-0.9 V 39.3 H 40 V 50 c -3.5,0 -6.6,0 -15.1,0 z m -5.8,-2 h -3.9 v -2.4 h 3.9 z m -5.9,-2.4 v 3.8 l -1,-0.9 c -0.2,-0.2 -0.4,-0.2 -0.7,-0.2 -0.2,0 -0.5,0.1 -0.7,0.2 l -1,0.9 v -3.8 z m -5.3,0 v 2.4 H 4 V 34.9 Z M 4,50 V 39.3 h 3.9 v 1.6 c 0,0.4 0.2,0.7 0.6,0.9 0.4,0.2 0.8,0.1 1.1,-0.2 l 2,-1.8 2,1.8 c 0.3,0.3 0.7,0.3 1.1,0.2 0.4,-0.2 0.6,-0.5 0.6,-0.9 v -1.6 h 3.9 V 50 C 10.7,50 7.4,50 4,50 Z M 36,64 H 8 c -3.3,0 -6,-2.7 -6,-6 0,-3.3 2.7,-6 6,-6 15.7,0 12.3,0 28,0 3.3,0 6,2.7 6,6 0,3.3 -2.7,6 -6,6 z"
           inkscape:connector-curvature="0"
           style="fill:#ffffff;stroke:#ffffff;stroke-width:1.1314286;stroke-miterlimit:4;stroke-dasharray:none;stroke-opacity:1" /></g><g
         id="g1024"
         style="fill:#ffffff;stroke:#ffffff;stroke-width:1.1314286;stroke-miterlimit:4;stroke-dasharray:none;stroke-opacity:1"><path
           id="path1022"
           d="m 10,53.4 c -2.5,0 -4.6,2.1 -4.6,4.6 0,2.5 2.1,4.6 4.6,4.6 2.5,0 4.6,-2.1 4.6,-4.6 0,-2.5 -2.1,-4.6 -4.6,-4.6 z m 0,7.2 c -1.4,0 -2.6,-1.2 -2.6,-2.6 0,-1.4 1.2,-2.6 2.6,-2.6 1.4,0 2.6,1.2 2.6,2.6 0,1.4 -1.2,2.6 -2.6,2.6 z"
           inkscape:connector-curvature="0"
           style="fill:#ffffff;stroke:#ffffff;stroke-width:1.1314286;stroke-miterlimit:4;stroke-dasharray:none;stroke-opacity:1" /></g><g
         id="g1028"
         style="fill:#ffffff;stroke:#ffffff;stroke-width:1.1314286;stroke-miterlimit:4;stroke-dasharray:none;stroke-opacity:1"><path
           id="path1026"
           d="m 34,53.4 c -2.5,0 -4.6,2.1 -4.6,4.6 0,2.5 2.1,4.6 4.6,4.6 2.5,0 4.6,-2.1 4.6,-4.6 0,-2.5 -2.1,-4.6 -4.6,-4.6 z m 0,7.2 c -1.4,0 -2.6,-1.2 -2.6,-2.6 0,-1.4 1.2,-2.6 2.6,-2.6 1.4,0 2.6,1.2 2.6,2.6 0,1.4 -1.2,2.6 -2.6,2.6 z"
           inkscape:connector-curvature="0"
           style="fill:#ffffff;stroke:#ffffff;stroke-width:1.1314286;stroke-miterlimit:4;stroke-dasharray:none;stroke-opacity:1" /></g><g
         id="g1032"
         style="fill:#ffffff;stroke:#ffffff;stroke-width:1.1314286;stroke-miterlimit:4;stroke-dasharray:none;stroke-opacity:1"><path
           id="path1030"
           d="m 22,53.4 c -2.5,0 -4.6,2.1 -4.6,4.6 0,2.5 2.1,4.6 4.6,4.6 2.5,0 4.6,-2.1 4.6,-4.6 0,-2.5 -2.1,-4.6 -4.6,-4.6 z m 0,7.2 c -1.4,0 -2.6,-1.2 -2.6,-2.6 0,-1.4 1.2,-2.6 2.6,-2.6 1.4,0 2.6,1.2 2.6,2.6 0,1.4 -1.2,2.6 -2.6,2.6 z"
           inkscape:connector-curvature="0"
           style="fill:#ffffff;stroke:#ffffff;stroke-width:1.1314286;stroke-miterlimit:4;stroke-dasharray:none;stroke-opacity:1" /></g><g
         id="g1036"
         style="fill:#ffffff;stroke:#ffffff;stroke-width:1.1314286;stroke-miterlimit:4;stroke-dasharray:none;stroke-opacity:1"><path
           id="path1034"
           d="m 65,55 h -0.7 v -3.4 c 0,-0.6 -0.4,-1 -1,-1 H 61.2 L 59.9,21.2 C 61.2,20.1 62,18.6 62,16.8 62,13.6 59.4,11 56.2,11 c -0.3,0 -0.5,0 -0.8,0.1 L 38.5,3.7 C 37.7,1.6 35.6,0 33.2,0 30.7,0 28.6,1.6 27.8,3.9 l -9.5,7.3 c -1.3,0.6 -2.1,1.8 -2.1,3.3 0,1.6 1.1,3 2.6,3.4 V 19 h -1 c -0.4,0 -0.7,0.2 -0.9,0.5 l -1.8,3.2 h -2.8 c -0.3,0 -0.6,0.2 -0.8,0.4 -0.2,0.3 -0.2,0.6 -0.1,0.9 l 2,5 c 0.2,0.5 0.8,0.8 1.3,0.6 0.5,-0.2 0.8,-0.8 0.6,-1.3 l -1.5,-3.6 h 1.9 8.2 c 0,0 0,0 0,0 h 1.9 l -1.3,3.6 c -0.2,0.5 0.1,1.1 0.6,1.3 0.5,0.2 1.1,-0.1 1.3,-0.6 l 1.7,-5 C 28.2,23.7 28.2,23.4 28,23.1 27.8,22.8 27.5,22.7 27.2,22.7 H 24.4 L 22.6,19.5 C 22.4,19.2 22.1,19 21.7,19 h -1 V 17.9 C 22,17.5 23,16.4 23.2,15 l 6.7,-4.7 c 0.9,0.6 2,1 3.2,1 1.2,0 2.3,-0.4 3.3,-1 l 14,7.4 c 0.2,1.4 0.9,2.7 2,3.6 L 51,50.7 h -2.3 c -0.6,0 -1,0.4 -1,1 V 55 h -0.6 c -0.6,0 -1,0.4 -1,1 v 9 c 0,0.6 0.4,1 1,1 H 65 c 0.6,0 1,-0.4 1,-1 v -9 c 0,-0.5 -0.4,-1 -1,-1 z M 22.1,22.6 h -4.7 l 1,-1.6 h 2.8 z M 50.5,15.5 37.9,8.8 C 38.4,8 38.8,7.1 38.8,6.1 l 13.9,6.1 c -1.1,0.8 -1.9,2 -2.2,3.3 z M 21.4,11.3 27.6,6.6 c 0.1,0.9 0.5,1.7 0.9,2.3 l -5.6,3.9 C 22.6,12.2 22,11.7 21.4,11.3 Z m -1.7,4.8 c 0,0 0,0 0,0 0,0 0,0 0,0 -0.9,0 -1.6,-0.7 -1.6,-1.6 0,-0.9 0.7,-1.6 1.6,-1.6 0.9,0 1.6,0.7 1.6,1.6 0,0.8 -0.7,1.6 -1.6,1.6 z M 29.5,5.7 c 0,-2 1.6,-3.7 3.7,-3.7 2,0 3.7,1.6 3.7,3.7 0,2.1 -1.6,3.7 -3.7,3.7 C 31.1,9.3 29.5,7.7 29.5,5.7 Z m 26.6,7.4 c 2.1,0 3.8,1.7 3.8,3.8 0,2.1 -1.7,3.8 -3.8,3.8 -2.1,0 -3.8,-1.7 -3.8,-3.8 0,-2.1 1.7,-3.8 3.8,-3.8 z m -1.8,9.3 c 0.6,0.2 1.2,0.3 1.8,0.3 0.6,0 1.2,-0.1 1.8,-0.3 l 1.3,28.3 H 53 Z m -4.6,30.3 c 1.6,0 11.8,0 12.6,0 V 55 H 49.7 Z M 64,64 H 48.1 V 57 C 54.5,57 38,57 64,57 Z"
           inkscape:connector-curvature="0"
           style="fill:#ffffff;stroke:#ffffff;stroke-width:1.1314286;stroke-miterlimit:4;stroke-dasharray:none;stroke-opacity:1" /></g></g></g></svg>