<?xml version="1.0" encoding="UTF-8" standalone="no"?>
<!-- Roman Inozemtsev: https://github.com/mir-one/  -->

<svg
   xmlns:dc="http://purl.org/dc/elements/1.1/"
   xmlns:cc="http://creativecommons.org/ns#"
   xmlns:rdf="http://www.w3.org/1999/02/22-rdf-syntax-ns#"
   xmlns:svg="http://www.w3.org/2000/svg"
   xmlns="http://www.w3.org/2000/svg"
   xmlns:sodipodi="http://sodipodi.sourceforge.net/DTD/sodipodi-0.dtd"
   xmlns:inkscape="http://www.inkscape.org/namespaces/inkscape"
   version="1.1"
   id="Слой_1"
   x="0px"
   y="0px"
   viewBox="0 0 66.875691 66.888969"
   xml:space="preserve"
   sodipodi:docname="wB-bg-ANIMAL.svg"
   inkscape:version="0.92.3 (2405546, 2018-03-11)"
   width="66.875694"
   height="66.888969"><metadata
     id="metadata27"><rdf:RDF><cc:Work
         rdf:about=""><dc:format>image/svg+xml</dc:format><dc:type
           rdf:resource="http://purl.org/dc/dcmitype/StillImage" /></cc:Work></rdf:RDF></metadata><defs
     id="defs25">
	
	
	
	
	
	
	
</defs><sodipodi:namedview
     pagecolor="#ffffff"
     bordercolor="#666666"
     borderopacity="1"
     objecttolerance="10"
     gridtolerance="10"
     guidetolerance="10"
     inkscape:pageopacity="0"
     inkscape:pageshadow="2"
     inkscape:window-width="1366"
     inkscape:window-height="691"
     id="namedview23"
     showgrid="false"
     inkscape:zoom="3.6589148"
     inkscape:cx="-25.339829"
     inkscape:cy="89.618039"
     inkscape:window-x="0"
     inkscape:window-y="0"
     inkscape:window-maximized="1"
     inkscape:current-layer="Слой_1" /><style
     type="text/css"
     id="style2">
	.st0{fill:#3F61AC;}
	.st1{fill:#FFFFFF;}
	.st2{fill:#2B388F;}
	.st3{fill:#58595B;}
</style><style
     id="style2-6"
     type="text/css">
	.st0{fill:#ED443E;}
	.st1{fill:#C2232F;}
</style><style
     id="style837"
     type="text/css">
	.st0{fill:#F6921E;}
	.st1{fill:#F05A28;}
	.st2{fill:#FFFFFF;}
	.st3{fill:#58595B;}
</style><style
     id="style2-3"
     type="text/css">
	.st0{fill:#ED443E;}
	.st1{fill:#C2232F;}
</style><path
     inkscape:connector-curvature="0"
     id="path1185"
     d="m 33.423393,0 c -8.56498,0 -17.12985,3.26051 -23.6472703,9.77792 -13.0348303,13.03484 -13.0348303,34.25972 0,47.29457 6.2291103,6.22904 14.4185303,9.458901 22.6086703,9.804951 8.88219,0.23071 17.88004,-2.999161 24.68586,-9.804951 6.11377,-6.1137 9.34367,-14.07437 9.80504,-22.14906 l -0.11264,-0.11038 C 67.192383,25.85044 63.963533,16.67083 57.070553,9.77793 50.553233,3.26051 41.988263,0 33.423283,0 Z"
     style="fill:#00d4aa;fill-opacity:1;stroke-width:1" /><path
     style="fill:#ffffff;stroke-width:1.00000012"
     d="m 33.725553,2.47558 c -4.00891,-0.0372 -7.91983,0.7146 -11.54339,2.13822 -0.0691,0.0267 -0.13823,0.053 -0.20708,0.0802 -0.002,0.001 -0.004,0.002 -0.006,0.002 -11.44042,4.53139 -19.5055506,15.67958 -19.5055506,28.75698 0,13.69808 8.9131906,25.27882 21.1954406,29.35622 0.60136,0.21298 1.22394,0.41857 1.85889,0.58869 16.45964,4.306651 33.3743,-5.459 37.80359,-21.9893 0.553729,-2.06629 0.88561,-4.13861 1.010209,-6.19179 0,-10e-4 0,-0.002 0,-0.002 0.0465,-0.60897 0.0805,-1.23427 0.0805,-1.86175 -0.0112,-1.90709 -0.19605,-3.77335 -0.53709,-5.58503 -0.037,-0.19991 -0.0768,-0.39897 -0.11763,-0.59782 -0.002,-0.0106 -0.004,-0.0213 -0.006,-0.0319 C 61.463003,16.05816 53.153883,6.66904 41.454802,3.53427 38.871922,2.84219 36.279062,2.49901 33.725512,2.47532 Z m -0.3374,1.97997 c 7.43079,0 14.86169,2.82729 20.51617,8.48175 6.00477,6.00473 8.8071,14.01107 8.40678,21.81723 -0.30026,7.00553 -3.10259,13.91088 -8.40678,19.21506 -0.87781,0.87781 -1.79847,1.68546 -2.75376,2.42646 -1.00324,0.7714 -2.06722,1.48662 -3.19225,2.13619 -7.35424,4.24602 -15.81313,4.88064 -23.24975,2.47359 -6.68913,-2.1032 -12.6341,-6.59727 -16.3846504,-13.09355 -4.17531,-7.23166 -4.86154,-15.49708 -2.67367,-22.88878 0.42288,-1.41736 0.95622,-2.80485 1.59368,-4.14886 0.0457,-0.0951 0.0898,-0.19088 0.13645,-0.28561 1.3639301,-2.76436 3.1944304,-5.35461 5.4916104,-7.65173 5.65438,-5.65446 13.085269,-8.48175 20.51617,-8.48175 z"
     id="path1187"
     inkscape:connector-curvature="0" /><g
     style="fill:#ffffff;stroke-width:7.6473856"
     id="g1016"
     transform="matrix(0.27226734,0,0,0.27226734,13.823483,13.84165)"><circle
       id="circle993"
       r="5.6360002"
       cy="71.413002"
       cx="54.969002"
       style="fill:#ffffff;stroke-width:7.6473856" /><path
       id="path995"
       d="m 90.253,77.048 c 3.111,0 5.635,-2.522 5.635,-5.635 0,-3.113 -2.523,-5.636 -5.635,-5.636 -3.115,0 -5.637,2.523 -5.637,5.636 0.001,3.112 2.522,5.635 5.637,5.635 z"
       inkscape:connector-curvature="0"
       style="fill:#ffffff;stroke-width:7.6473856" /><path
       id="path997"
       d="m 135.764,55.737 c -0.288,-0.407 -7.165,-9.973 -16.216,-9.973 -1.764,0 -3.455,0.181 -5.04,0.518 5.539,-5.111 9.538,-14.21 9.538,-28.7 0,-1.31 -0.85,-2.469 -2.1,-2.862 -1.247,-0.392 -2.609,0.07 -3.36,1.144 C 107.552,31.663 94.033,31.708 92.78,31.681 87.039,27.729 80.092,25.409 72.61,25.409 c -7.482,0 -14.43,2.32 -20.171,6.272 -1.25,0.034 -14.764,-0.006 -25.807,-15.818 -0.75,-1.074 -2.109,-1.536 -3.36,-1.144 -1.25,0.394 -2.1,1.552 -2.1,2.862 0,14.863 4.206,24.061 9.966,29.094 -2.018,-0.588 -4.247,-0.912 -6.605,-0.912 -9.052,0 -15.928,9.565 -16.216,9.973 -0.735,1.039 -0.735,2.428 0,3.467 0.289,0.407 7.164,9.972 16.216,9.972 4.974,0 9.363,-1.448 12.408,-3.775 v 28.348 c 0,19.667 16.001,35.668 35.668,35.668 19.667,0 35.668,-16.001 35.668,-35.668 V 66.19 c 2.958,1.858 6.886,2.986 11.27,2.986 9.051,0 15.928,-9.565 16.216,-9.972 0.737,-1.038 0.737,-2.428 0.001,-3.467 z m -18.36,-29.19 c -1.6,10.32 -6.134,16.896 -12.885,18.621 -1.503,-3.002 -3.414,-5.767 -5.666,-8.214 4.852,-1.094 11.787,-3.793 18.551,-10.407 z m -15.125,34.532 v 30.73 H 42.942 v -30.73 c 0,-16.359 13.309,-29.668 29.668,-29.668 16.359,0 29.669,13.309 29.669,29.668 z M 27.815,26.546 c 6.765,6.615 13.701,9.314 18.552,10.408 -2.251,2.447 -4.162,5.211 -5.666,8.214 -6.75,-1.724 -11.286,-8.3 -12.886,-18.622 z M 38.47,50.759 c -0.009,0.031 -0.017,0.063 -0.026,0.094 -0.05,-0.051 -0.107,-0.098 -0.158,-0.148 0.061,0.019 0.123,0.036 0.184,0.054 z M 24.534,63.176 c -3.853,0 -7.698,-3.285 -9.898,-5.706 2.202,-2.422 6.046,-5.706 9.898,-5.706 6.162,0 10.767,3.013 10.767,5.706 0,2.693 -4.605,5.706 -10.767,5.706 z m 48.077,60.241 c -14.981,0 -27.397,-11.163 -29.384,-25.607 h 58.767 c -1.987,14.444 -14.402,25.607 -29.383,25.607 z m 46.937,-60.241 c -6.163,0 -10.768,-3.012 -10.768,-5.706 0,-2.694 4.604,-5.706 10.768,-5.706 3.847,0 7.688,3.276 9.889,5.695 -1.993,2.199 -5.819,5.717 -9.889,5.717 z"
       inkscape:connector-curvature="0"
       style="fill:#ffffff;stroke-width:7.6473856" /><rect
       id="rect999"
       height="8.8339996"
       width="6"
       y="103.208"
       x="59.875"
       style="fill:#ffffff;stroke-width:7.6473856" /><rect
       id="rect1001"
       height="8.8339996"
       width="6"
       y="103.208"
       x="78.208"
       style="fill:#ffffff;stroke-width:7.6473856" /></g></svg>