<?xml version="1.0" encoding="UTF-8" standalone="no"?>
<!-- Roman Inozemtsev: https://github.com/mir-one/  -->

<svg
   xmlns:dc="http://purl.org/dc/elements/1.1/"
   xmlns:cc="http://creativecommons.org/ns#"
   xmlns:rdf="http://www.w3.org/1999/02/22-rdf-syntax-ns#"
   xmlns:svg="http://www.w3.org/2000/svg"
   xmlns="http://www.w3.org/2000/svg"
   xmlns:xlink="http://www.w3.org/1999/xlink"
   xmlns:sodipodi="http://sodipodi.sourceforge.net/DTD/sodipodi-0.dtd"
   xmlns:inkscape="http://www.inkscape.org/namespaces/inkscape"
   version="1.1"
   id="Слой_1"
   x="0px"
   y="0px"
   viewBox="0 0 66.875691 66.888969"
   xml:space="preserve"
   sodipodi:docname="wB-bg-TOURISM.svg"
   inkscape:version="0.92.3 (2405546, 2018-03-11)"
   width="66.875694"
   height="66.888969"><metadata
     id="metadata27"><rdf:RDF><cc:Work
         rdf:about=""><dc:format>image/svg+xml</dc:format><dc:type
           rdf:resource="http://purl.org/dc/dcmitype/StillImage" /></cc:Work></rdf:RDF></metadata><defs
     id="defs25">
	
	
	
	
	
	
	
<linearGradient
   inkscape:collect="always"
   xlink:href="#linearGradient1913"
   id="linearGradient1165"
   gradientUnits="userSpaceOnUse"
   gradientTransform="matrix(0.10400573,0,0,0.10400573,1477.0817,-224.55188)"
   x1="-13987.585"
   y1="2798.7959"
   x2="-13757.8"
   y2="2182.2871" /><linearGradient
   inkscape:collect="always"
   id="linearGradient1913"><stop
     style="stop-color:#1463ff;stop-opacity:1"
     offset="0"
     id="stop1909" /><stop
     style="stop-color:#518cff;stop-opacity:1"
     offset="1"
     id="stop1911" /></linearGradient></defs><sodipodi:namedview
     pagecolor="#ffffff"
     bordercolor="#666666"
     borderopacity="1"
     objecttolerance="10"
     gridtolerance="10"
     guidetolerance="10"
     inkscape:pageopacity="0"
     inkscape:pageshadow="2"
     inkscape:window-width="1366"
     inkscape:window-height="691"
     id="namedview23"
     showgrid="false"
     inkscape:zoom="3.6589148"
     inkscape:cx="-13.314406"
     inkscape:cy="77.592616"
     inkscape:window-x="0"
     inkscape:window-y="0"
     inkscape:window-maximized="1"
     inkscape:current-layer="Слой_1" /><style
     type="text/css"
     id="style2">
	.st0{fill:#3F61AC;}
	.st1{fill:#FFFFFF;}
	.st2{fill:#2B388F;}
	.st3{fill:#58595B;}
</style><style
     id="style2-6"
     type="text/css">
	.st0{fill:#ED443E;}
	.st1{fill:#C2232F;}
</style><style
     id="style837"
     type="text/css">
	.st0{fill:#F6921E;}
	.st1{fill:#F05A28;}
	.st2{fill:#FFFFFF;}
	.st3{fill:#58595B;}
</style><style
     id="style2-3"
     type="text/css">
	.st0{fill:#ED443E;}
	.st1{fill:#C2232F;}
</style><path
     inkscape:connector-curvature="0"
     id="path1161"
     d="M 33.423393,0 C 24.858412,0 16.293542,3.26051 9.7761225,9.77792 c -13.03483,13.03484 -13.03483,34.25972 0,47.29457 6.2291095,6.22904 14.4185305,9.458904 22.6086705,9.804952 8.882189,0.230705 17.880039,-2.999162 24.68586,-9.804952 6.11377,-6.1137 9.343669,-14.07437 9.805039,-22.14906 l -0.11264,-0.11038 C 67.192383,25.85044 63.963532,16.67083 57.070552,9.77793 50.553232,3.26051 41.988263,0 33.423282,0 Z"
     style="fill:url(#linearGradient1165);fill-opacity:1;stroke-width:1" /><path
     style="fill:#ffffff;stroke-width:1.00000012"
     d="m 33.725552,2.47558 c -4.00891,-0.0372 -7.91983,0.7146 -11.543391,2.13822 -0.0691,0.0267 -0.13823,0.053 -0.207079,0.0802 -0.002,0.001 -0.004,0.002 -0.006,0.002 C 10.528661,9.22739 2.4635315,20.37558 2.4635315,33.45298 c 0,13.69808 8.9131905,25.27882 21.1954405,29.35622 0.60136,0.21298 1.22394,0.41857 1.85889,0.58869 16.45964,4.306649 33.374299,-5.459 37.80359,-21.9893 0.55373,-2.06629 0.88561,-4.13861 1.01021,-6.19179 0,-10e-4 0,-0.002 0,-0.002 0.0465,-0.60897 0.0805,-1.23427 0.0805,-1.86175 -0.0112,-1.90709 -0.19605,-3.77335 -0.53709,-5.58503 -0.037,-0.19991 -0.0768,-0.39897 -0.11763,-0.59782 -0.002,-0.0106 -0.004,-0.0213 -0.006,-0.0319 C 61.463001,16.05816 53.153881,6.66904 41.454802,3.53427 38.871922,2.84219 36.279062,2.49901 33.725512,2.47532 Z m -0.3374,1.97997 c 7.430789,0 14.86169,2.82729 20.516169,8.48175 6.00477,6.00473 8.8071,14.01107 8.40678,21.81723 -0.30026,7.00553 -3.10259,13.91088 -8.40678,19.21506 -0.87781,0.87781 -1.79847,1.68546 -2.75376,2.42646 -1.00324,0.7714 -2.06722,1.48662 -3.192249,2.13619 -7.35424,4.24602 -15.81313,4.88064 -23.24975,2.47359 -6.68913,-2.1032 -12.634101,-6.59727 -16.3846505,-13.09355 -4.17531,-7.23166 -4.86154,-15.49708 -2.67367,-22.88878 0.42288,-1.41736 0.95622,-2.80485 1.59368,-4.14886 0.0457,-0.0951 0.0898,-0.19088 0.13645,-0.28561 1.36393,-2.76436 3.1944305,-5.35461 5.4916105,-7.65173 5.65438,-5.65446 13.08527,-8.48175 20.51617,-8.48175 z"
     id="path1163"
     inkscape:connector-curvature="0" /><g
     style="fill:#ffffff;stroke:#f5f5f5;stroke-width:1.54285717;stroke-miterlimit:4;stroke-dasharray:none;stroke-opacity:1"
     id="g1148"
     transform="matrix(0.38888889,0,0,0.38888889,13.993402,14.00004)"><path
       id="path1137"
       d="m 53.75,17.95 c -0.434,0.767 -0.65,1.65 -0.65,2.65 0,1.133 0.216,2.033 0.65,2.7 0.367,0.533 0.767,0.8 1.2,0.8 0.367,0 0.717,-0.267 1.05,-0.8 0.5,-0.667 0.75,-1.567 0.75,-2.7 0,-1.034 -0.233,-1.9 -0.7,-2.601 -0.367,-0.533 -0.733,-0.8 -1.1,-0.8 -0.433,10e-4 -0.833,0.251 -1.2,0.751 z m 1.2,-3.25 c 1.333,0 2.4,0.633 3.2,1.9 0.733,1.1 1.1,2.433 1.1,4 0,1.666 -0.383,3.033 -1.15,4.1 -0.767,1.3 -1.817,1.95 -3.15,1.95 -1.3,0 -2.383,-0.667 -3.25,-2 -0.767,-1.067 -1.15,-2.417 -1.15,-4.05 0,-1.467 0.35,-2.8 1.05,-4 h 0.1 c 0.833,-1.267 1.917,-1.9 3.25,-1.9 z m 8.9,8.1 c -0.333,0 -0.65,0.216 -0.95,0.65 -0.4,0.533 -0.6,1.283 -0.6,2.25 0,0.967 0.184,1.717 0.55,2.25 0.333,0.434 0.667,0.65 1,0.65 0.267,0 0.55,-0.217 0.85,-0.65 0.367,-0.533 0.55,-1.283 0.55,-2.25 0,-0.934 -0.184,-1.684 -0.55,-2.25 -0.3,-0.433 -0.583,-0.65 -0.85,-0.65 z m 2.95,-0.699 c 0.667,0.966 1,2.166 1,3.6 0,1.434 -0.35,2.65 -1.05,3.65 -0.8,1.2 -1.767,1.8 -2.9,1.8 -1.233,0 -2.25,-0.6 -3.05,-1.8 -0.667,-1 -1,-2.217 -1,-3.65 0,-1.433 0.333,-2.633 1,-3.6 0.767,-1.233 1.784,-1.851 3.05,-1.851 1.167,0 2.15,0.617 2.95,1.851 z M 63.05,34.95 c 6.467,6.533 9.7,14.05 9.7,22.55 0,1.667 -0.633,4.417 -1.9,8.25 -1.233,4 -2.934,8.15 -5.1,12.45 -5.8,11.2 -12.1,16.8 -18.9,16.8 -3.434,0 -6.034,-0.883 -7.8,-2.649 -1.667,-1.7 -2.5,-4.184 -2.5,-7.45 0,-3.567 1.35,-7.917 4.05,-13.05 2.5,-4.834 3.75,-9.101 3.75,-12.8 0,-3.933 -3.017,-8.167 -9.05,-12.7 -3.767,-2.8 -5.966,-4.517 -6.6,-5.15 -1.9,-1.767 -3,-3.467 -3.3,-5.1 l -0.05,-0.9 0.15,-1.45 c 0.267,-2.133 1.183,-3.816 2.75,-5.05 2.066,-1.6 5.167,-2.367 9.3,-2.3 10.733,0 18.7,2.366 23.9,7.1 h 0.05 z m 6.5,-1.25 c 0,0.5 0.167,0.967 0.5,1.4 l 0.1,0.149 c 0.267,0.3 0.583,0.45 0.95,0.45 0.333,0 0.65,-0.184 0.95,-0.55 l 0.1,-0.05 0.05,-0.05 c 0.267,-0.367 0.4,-0.817 0.4,-1.35 0,-0.633 -0.184,-1.184 -0.55,-1.65 -0.267,-0.3 -0.583,-0.45 -0.95,-0.45 -0.4,0 -0.733,0.166 -1,0.5 -0.367,0.435 -0.55,0.968 -0.55,1.601 z m -2.55,0 c 0,-1.2 0.383,-2.267 1.15,-3.2 0.8,-0.966 1.783,-1.45 2.95,-1.45 1.133,0 2.1,0.466 2.9,1.4 v 0.05 c 0.767,0.934 1.15,2 1.15,3.2 0,1.1 -0.35,2.083 -1.05,2.95 l -0.1,0.1 -0.05,0.15 c -0.8,0.9 -1.75,1.35 -2.85,1.35 -1.167,0 -2.133,-0.466 -2.9,-1.399 L 68,36.5 c -0.667,-0.833 -1,-1.767 -1,-2.8 z m -7.2,1.651 c -4.767,-4.3 -12.2,-6.45 -22.3,-6.45 l -0.4,-0.05 c -3.633,0 -6.184,0.716 -7.65,2.149 -0.8,0.733 -1.3,1.784 -1.5,3.15 v 0.1 c -0.066,0.233 -0.1,0.55 -0.1,0.95 v 0.5 c 0.2,1.066 1.05,2.283 2.55,3.65 1.033,0.966 3.184,2.633 6.45,5 6.667,5.066 10,9.966 10,14.7 0,4.033 -1.333,8.683 -4,13.95 -2.534,4.767 -3.8,8.733 -3.8,11.9 0,2.566 0.617,4.467 1.85,5.7 1.233,1.233 3.217,1.85 5.95,1.85 5.7,0 11.25,-5.15 16.65,-15.45 1.9,-3.7 3.566,-7.7 5,-12 1.133,-3.633 1.7,-6.133 1.7,-7.5 0,-7.8 -2.966,-14.716 -8.9,-20.75 z M 36.1,7.95 c 1.2,1.767 1.8,3.85 1.8,6.25 0,2.434 -0.6,4.55 -1.8,6.35 -1.267,2 -2.867,3 -4.8,3 -1.867,0 -3.45,-1 -4.75,-3 -1.133,-1.767 -1.7,-3.883 -1.7,-6.35 0,-2.5 0.566,-4.583 1.7,-6.25 C 27.783,5.983 29.367,5 31.3,5 c 1.967,0 3.567,0.983 4.8,2.95 z m -4.8,-0.4 c -1,0 -1.883,0.583 -2.65,1.75 -0.867,1.367 -1.3,3 -1.3,4.9 0,1.967 0.433,3.633 1.3,5 0.8,1.2 1.684,1.8 2.65,1.8 1.034,0 1.917,-0.6 2.65,-1.8 H 34 c 0.9,-1.367 1.35,-3.033 1.35,-5 C 35.35,12.333 34.9,10.7 34,9.3 33.233,8.134 32.333,7.55 31.3,7.55 Z m 17.9,9.7 c 0,1.8 -0.417,3.284 -1.25,4.45 -0.9,1.434 -2.05,2.15 -3.45,2.15 -1.434,0 -2.617,-0.733 -3.55,-2.2 -0.8,-1.233 -1.2,-2.7 -1.2,-4.4 0,-1.6 0.4,-3.05 1.2,-4.35 0.934,-1.367 2.117,-2.05 3.55,-2.05 1.4,0 2.566,0.683 3.5,2.05 0.8,1.234 1.2,2.683 1.2,4.35 z m -3.35,-2.899 c -0.4,-0.667 -0.85,-1 -1.35,-1 -0.533,0 -1.017,0.3 -1.45,0.899 -0.5,0.9 -0.75,1.9 -0.75,3 0,1.233 0.25,2.25 0.75,3.05 0.467,0.667 0.95,1 1.45,1 0.5,0 0.933,-0.333 1.3,-1 0.567,-0.8 0.85,-1.817 0.85,-3.05 0,-1.167 -0.267,-2.133 -0.8,-2.899 z"
       inkscape:connector-curvature="0"
       style="clip-rule:evenodd;fill:#ffffff;fill-rule:evenodd;stroke:#f5f5f5;stroke-width:1.54285717;stroke-miterlimit:4;stroke-dasharray:none;stroke-opacity:1" /></g></svg>