<?xml version="1.0" encoding="UTF-8" standalone="no"?>
<!-- Roman Inozemtsev: https://github.com/mir-one/  -->

<svg
   xmlns:dc="http://purl.org/dc/elements/1.1/"
   xmlns:cc="http://creativecommons.org/ns#"
   xmlns:rdf="http://www.w3.org/1999/02/22-rdf-syntax-ns#"
   xmlns:svg="http://www.w3.org/2000/svg"
   xmlns="http://www.w3.org/2000/svg"
   xmlns:sodipodi="http://sodipodi.sourceforge.net/DTD/sodipodi-0.dtd"
   xmlns:inkscape="http://www.inkscape.org/namespaces/inkscape"
   version="1.1"
   id="Слой_1"
   x="0px"
   y="0px"
   viewBox="0 0 66.875691 66.888962"
   xml:space="preserve"
   sodipodi:docname="wB-bg-FOREST.svg"
   inkscape:version="0.92.3 (2405546, 2018-03-11)"
   width="66.875694"
   height="66.888962"><metadata
     id="metadata27"><rdf:RDF><cc:Work
         rdf:about=""><dc:format>image/svg+xml</dc:format><dc:type
           rdf:resource="http://purl.org/dc/dcmitype/StillImage" /></cc:Work></rdf:RDF></metadata><defs
     id="defs25">
	
	
	
	
	
	
	
</defs><sodipodi:namedview
     pagecolor="#ffffff"
     bordercolor="#666666"
     borderopacity="1"
     objecttolerance="10"
     gridtolerance="10"
     guidetolerance="10"
     inkscape:pageopacity="0"
     inkscape:pageshadow="2"
     inkscape:window-width="1366"
     inkscape:window-height="691"
     id="namedview23"
     showgrid="false"
     inkscape:zoom="3.6589148"
     inkscape:cx="-34.085591"
     inkscape:cy="99.730319"
     inkscape:window-x="0"
     inkscape:window-y="0"
     inkscape:window-maximized="1"
     inkscape:current-layer="Слой_1" /><style
     type="text/css"
     id="style2">
	.st0{fill:#3F61AC;}
	.st1{fill:#FFFFFF;}
	.st2{fill:#2B388F;}
	.st3{fill:#58595B;}
</style><style
     id="style2-6"
     type="text/css">
	.st0{fill:#ED443E;}
	.st1{fill:#C2232F;}
</style><style
     id="style837"
     type="text/css">
	.st0{fill:#F6921E;}
	.st1{fill:#F05A28;}
	.st2{fill:#FFFFFF;}
	.st3{fill:#58595B;}
</style><style
     id="style2-3"
     type="text/css">
	.st0{fill:#ED443E;}
	.st1{fill:#C2232F;}
</style><path
     inkscape:connector-curvature="0"
     id="path1207"
     d="m 33.423394,0 c -8.564981,0 -17.12985,3.2605 -23.6472715,9.77792 -13.03483,13.03484 -13.03483,34.25971 0,47.294557 6.2291105,6.22904 14.4185305,9.4589 22.6086705,9.80495 8.882191,0.23071 17.880041,-2.99916 24.685861,-9.80495 6.11377,-6.113697 9.34367,-14.074357 9.80504,-22.149057 l -0.11264,-0.11038 C 67.192384,25.85043 63.963534,16.67082 57.070554,9.77793 50.553234,3.2605 41.988264,0 33.423284,0 Z"
     style="fill:#00d455;fill-opacity:1;stroke-width:1" /><path
     style="fill:#ffffff;stroke-width:1.00000012"
     d="m 33.725324,2.47558 c -4.008911,-0.0372 -7.919831,0.71459 -11.543391,2.13821 -0.0691,0.0267 -0.13823,0.053 -0.20708,0.0802 -0.002,10e-4 -0.004,0.002 -0.006,0.002 -11.44042,4.5314 -19.5055505,15.67958 -19.5055505,28.75698 0,13.69808 8.9131905,25.278817 21.1954405,29.356217 0.60136,0.21298 1.22394,0.41857 1.85889,0.58869 16.45964,4.30665 33.3743,-5.459 37.803591,-21.989287 0.55373,-2.06629 0.88561,-4.13862 1.01021,-6.19179 0,-10e-4 0,-10e-4 0,-0.002 0.0465,-0.60897 0.0805,-1.23427 0.0805,-1.86175 -0.0112,-1.90709 -0.19605,-3.77336 -0.537091,-5.58503 -0.037,-0.19991 -0.0768,-0.39897 -0.11763,-0.59783 -0.002,-0.0106 -0.004,-0.0213 -0.006,-0.0319 C 61.462773,16.05816 53.153653,6.66904 41.454573,3.53426 38.871693,2.84219 36.278834,2.49901 33.725284,2.47532 Z m -0.337401,1.97997 c 7.43079,0 14.86169,2.82729 20.51617,8.48175 6.00477,6.00473 8.8071,14.01107 8.40678,21.81723 -0.30026,7.00552 -3.10259,13.91088 -8.40678,19.21505 -0.87781,0.87781 -1.79847,1.685467 -2.75376,2.426467 -1.00324,0.7714 -2.06722,1.48661 -3.19225,2.13618 -7.35424,4.24602 -15.81313,4.88065 -23.24975,2.47359 -6.68913,-2.10319 -12.6341,-6.597267 -16.3846505,-13.093547 -4.17531,-7.23165 -4.86154,-15.49707 -2.67367,-22.88878 0.42288,-1.41736 0.95622,-2.80485 1.59368,-4.14885 0.0457,-0.0951 0.0898,-0.19088 0.13645,-0.28561 1.36393,-2.76437 3.1944305,-5.35461 5.4916105,-7.65173 5.65438,-5.65446 13.085269,-8.48175 20.51617,-8.48175 z"
     id="path1209"
     inkscape:connector-curvature="0" /><g
     style="fill:#ffffff;stroke-width:7.54285717"
     id="g1135"
     transform="matrix(0.39772728,0,0,0.39772728,13.551253,13.5579)"><path
       id="path1124"
       overflow="visible"
       display="inline"
       visibility="visible"
       marker="none"
       d="M 37.840801,6.0048477 A 2.000685,1.9994433 0 0 0 36.496725,6.6608495 L 18.492359,26.653285 a 2.000685,1.9994433 0 0 0 1.500363,3.342485 h 5.56385 L 13.491146,43.678093 a 2.000685,1.9994433 0 0 0 1.500364,3.311247 h 4.719894 L 6.6769931,58.484991 a 2.000685,1.9994433 0 0 0 1.3128183,3.498676 H 29.432512 l -10.752608,9.496407 a 2.000685,1.9994433 0 0 0 1.312818,3.498676 h 15.003639 v 4.998109 a 2.000685,1.9994433 0 1 0 4.00097,0 V 74.97875 h 9.002183 v 16.99357 a 2.000685,1.9994433 0 1 0 4.000971,0 V 74.97875 h 9.002183 v 4.998109 a 2.000685,1.9994433 0 1 0 4.00097,0 V 74.97875 h 15.003639 a 2.000685,1.9994433 0 0 0 1.312818,-3.498676 L 70.567487,61.983667 h 21.4427 a 2.000685,1.9994433 0 0 0 1.312819,-3.498676 L 80.288595,46.98934 h 4.719894 a 2.000685,1.9994433 0 0 0 1.500364,-3.311247 L 74.443427,29.99577 h 5.56385 A 2.000685,1.9994433 0 0 0 81.50764,26.653285 L 63.503274,6.6608495 A 2.000685,1.9994433 0 0 0 61.87788,6.0048477 2.000685,1.9994433 0 0 0 60.533804,6.6608495 L 49.999999,18.062785 39.466195,6.6608495 A 2.000685,1.9994433 0 0 0 37.840801,6.0048477 Z m 0.187545,4.9668703 9.283502,10.027456 -16.816579,18.649194 a 2.000685,1.9994433 0 0 0 1.500364,3.342485 h 5.563849 L 25.494057,56.673176 A 2.000685,1.9994433 0 0 0 24.993935,57.98518 H 13.272343 L 26.306754,46.489529 A 2.000685,1.9994433 0 0 0 24.993935,42.990853 H 19.430086 L 31.495512,29.30853 a 2.000685,1.9994433 0 0 0 -1.500364,-3.311247 h -5.501334 z m 23.943307,0 13.534532,15.025565 h -5.501334 a 2.000685,1.9994433 0 0 0 -1.500364,3.311247 l 12.065426,13.682323 h -5.563849 a 2.000685,1.9994433 0 0 0 -1.312819,3.498676 L 86.727656,57.98518 H 75.006064 A 2.000685,1.9994433 0 0 0 74.505942,56.673176 L 62.440516,42.990853 h 5.56385 A 2.000685,1.9994433 0 0 0 69.50473,39.648368 L 52.688151,20.999174 Z M 49.999999,23.998039 63.503274,38.992366 H 58.00194 a 2.000685,1.9994433 0 0 0 -1.500364,3.311247 l 12.065426,13.682323 h -5.563849 a 2.000685,1.9994433 0 0 0 -1.312819,3.498676 L 74.724745,70.980263 H 25.275253 L 38.309664,59.484612 A 2.000685,1.9994433 0 0 0 36.996846,55.985936 H 31.432997 L 43.498423,42.303613 a 2.000685,1.9994433 0 0 0 -1.500364,-3.311247 h -5.501334 z"
       style="color:#000000;text-indent:0;text-transform:none;direction:ltr;baseline-shift:baseline;display:inline;overflow:visible;visibility:visible;fill:#ffffff;fill-opacity:1;stroke:none;stroke-width:7.54285717;enable-background:accumulate"
       inkscape:connector-curvature="0" /></g></svg>