<?xml version="1.0" encoding="UTF-8" standalone="no"?>
<!-- Roman Inozemtsev: https://github.com/mir-one/  -->

<svg
   xmlns:dc="http://purl.org/dc/elements/1.1/"
   xmlns:cc="http://creativecommons.org/ns#"
   xmlns:rdf="http://www.w3.org/1999/02/22-rdf-syntax-ns#"
   xmlns:svg="http://www.w3.org/2000/svg"
   xmlns="http://www.w3.org/2000/svg"
   xmlns:sodipodi="http://sodipodi.sourceforge.net/DTD/sodipodi-0.dtd"
   xmlns:inkscape="http://www.inkscape.org/namespaces/inkscape"
   version="1.1"
   id="Слой_1"
   x="0px"
   y="0px"
   viewBox="0 0 66.875691 66.888969"
   xml:space="preserve"
   sodipodi:docname="wB-bg-VR.svg"
   inkscape:version="0.92.3 (2405546, 2018-03-11)"
   width="66.875694"
   height="66.888969"><metadata
     id="metadata27"><rdf:RDF><cc:Work
         rdf:about=""><dc:format>image/svg+xml</dc:format><dc:type
           rdf:resource="http://purl.org/dc/dcmitype/StillImage" /></cc:Work></rdf:RDF></metadata><defs
     id="defs25">
	
	
	
	
	
	
	
</defs><sodipodi:namedview
     pagecolor="#ffffff"
     bordercolor="#666666"
     borderopacity="1"
     objecttolerance="10"
     gridtolerance="10"
     guidetolerance="10"
     inkscape:pageopacity="0"
     inkscape:pageshadow="2"
     inkscape:window-width="1366"
     inkscape:window-height="691"
     id="namedview23"
     showgrid="false"
     inkscape:zoom="3.6589148"
     inkscape:cx="2.5061009"
     inkscape:cy="40.019091"
     inkscape:window-x="0"
     inkscape:window-y="0"
     inkscape:window-maximized="1"
     inkscape:current-layer="Слой_1" /><style
     type="text/css"
     id="style2">
	.st0{fill:#3F61AC;}
	.st1{fill:#FFFFFF;}
	.st2{fill:#2B388F;}
	.st3{fill:#58595B;}
</style><style
     id="style2-6"
     type="text/css">
	.st0{fill:#ED443E;}
	.st1{fill:#C2232F;}
</style><style
     id="style837"
     type="text/css">
	.st0{fill:#F6921E;}
	.st1{fill:#F05A28;}
	.st2{fill:#FFFFFF;}
	.st3{fill:#58595B;}
</style><style
     id="style2-3"
     type="text/css">
	.st0{fill:#ED443E;}
	.st1{fill:#C2232F;}
</style><path
     style="fill:#ff2a2a;fill-opacity:1;stroke-width:1"
     d="M 33.423394,0 C 24.858413,0 16.293543,3.26051 9.7761225,9.77792 c -13.03483,13.034839 -13.03483,34.25972 0,47.29457 6.2291105,6.22904 14.4185305,9.458904 22.6086705,9.804952 8.882191,0.230705 17.88004,-2.999162 24.68586,-9.804952 6.11377,-6.1137 9.34367,-14.07437 9.80504,-22.14906 l -0.11264,-0.11038 C 67.192384,25.85044 63.963533,16.67083 57.070553,9.77793 50.553233,3.26051 41.988263,0 33.423283,0 Z"
     id="path1179"
     inkscape:connector-curvature="0" /><path
     inkscape:connector-curvature="0"
     id="path1181"
     d="m 33.725553,2.4758017 c -4.008911,-0.0372 -7.919831,0.7146 -11.54339,2.13822 -0.0691,0.0267 -0.13823,0.053 -0.207081,0.0802 -0.002,0.001 -0.004,0.002 -0.006,0.002 C 10.528663,9.2276117 2.4635312,20.375801 2.4635312,33.453202 c 0,13.69808 8.9131908,25.27882 21.1954408,29.35622 0.60136,0.21298 1.22394,0.41857 1.85889,0.58869 16.45964,4.306649 33.3743,-5.459 37.80359,-21.9893 0.55373,-2.06629 0.885611,-4.13861 1.01021,-6.19179 0,-10e-4 0,-0.002 0,-0.002 0.0465,-0.60897 0.0805,-1.23427 0.0805,-1.86175 -0.0112,-1.90709 -0.196049,-3.77335 -0.53709,-5.585031 -0.037,-0.199909 -0.0768,-0.398969 -0.11763,-0.597819 -0.002,-0.0106 -0.004,-0.0213 -0.006,-0.0319 -2.28844,-11.08014 -10.59756,-20.4692603 -22.29664,-23.6040303 -2.58288,-0.69208 -5.17574,-1.03526 -7.72929,-1.05895 z m -0.3374,1.97997 c 7.43079,0 14.861689,2.82729 20.516169,8.4817503 6.00477,6.00473 8.807101,14.01107 8.406781,21.81723 -0.30026,7.00553 -3.102591,13.91088 -8.406781,19.21506 -0.87781,0.87781 -1.79847,1.68546 -2.75376,2.42646 -1.00324,0.7714 -2.06722,1.48662 -3.19225,2.13619 -7.35424,4.24602 -15.813129,4.88064 -23.24975,2.47359 -6.68913,-2.1032 -12.634099,-6.59727 -16.3846508,-13.09355 -4.17531,-7.23166 -4.86154,-15.49708 -2.67367,-22.88878 0.42288,-1.41736 0.95622,-2.80485 1.59368,-4.14886 0.0457,-0.0951 0.0898,-0.19088 0.13645,-0.28561 1.36393,-2.76436 3.1944318,-5.35461 5.4916108,-7.65173 5.65438,-5.6544603 13.08527,-8.4817503 20.516171,-8.4817503 z"
     style="fill:#ffffff;stroke-width:1.00000012" /><g
     style="fill:#ffffff;stroke-width:7.5"
     id="g4772"
     transform="matrix(2.5,0,0,2.5,13.437847,14.694486)"><g
       id="g4758"
       style="fill:#ffffff;stroke-width:7.5"><path
         id="path4752"
         d="M 4.5,9 C 3.673,9 3,8.327 3,7.5 3,6.673 3.673,6 4.5,6 5.327,6 6,6.673 6,7.5 6,8.327 5.327,9 4.5,9 Z m 0,-2 C 4.224,7 4,7.224 4,7.5 4,7.776 4.224,8 4.5,8 4.776,8 5,7.776 5,7.5 5,7.224 4.776,7 4.5,7 Z"
         inkscape:connector-curvature="0"
         style="fill:#ffffff;stroke-width:7.5" /><path
         id="path4754"
         d="M 11.5,9 C 10.673,9 10,8.327 10,7.5 10,6.673 10.673,6 11.5,6 12.327,6 13,6.673 13,7.5 13,8.327 12.327,9 11.5,9 Z m 0,-2 C 11.225,7 11,7.224 11,7.5 11,7.776 11.225,8 11.5,8 11.775,8 12,7.776 12,7.5 12,7.224 11.775,7 11.5,7 Z"
         inkscape:connector-curvature="0"
         style="fill:#ffffff;stroke-width:7.5" /><path
         id="path4756"
         d="M 14.5,12 H 10 C 9.804,12 9.625,11.885 9.544,11.706 L 8.476,9.337 C 8.467,9.32 8.458,9.305 8.451,9.287 8.301,8.939 7.698,8.938 7.549,9.287 7.542,9.305 7.533,9.321 7.524,9.337 L 6.455,11.706 C 6.375,11.885 6.197,12 6,12 H 1.5 C 1.224,12 1,11.776 1,11.5 v -8 C 1,3.224 1.224,3 1.5,3 h 13 C 14.776,3 15,3.224 15,3.5 v 8 C 15,11.776 14.776,12 14.5,12 Z M 10.323,11 H 14 V 4 H 2 v 7 H 5.677 L 6.632,8.883 C 6.639,8.868 6.646,8.854 6.654,8.84 6.899,8.328 7.421,8 8,8 8.579,8 9.102,8.328 9.346,8.84 9.354,8.855 9.362,8.868 9.368,8.883 Z"
         inkscape:connector-curvature="0"
         style="fill:#ffffff;stroke-width:7.5" /></g></g></svg>