<?xml version="1.0" encoding="UTF-8" standalone="no"?>
<!-- Roman Inozemtsev: https://github.com/mir-one/  -->

<svg
   xmlns:dc="http://purl.org/dc/elements/1.1/"
   xmlns:cc="http://creativecommons.org/ns#"
   xmlns:rdf="http://www.w3.org/1999/02/22-rdf-syntax-ns#"
   xmlns:svg="http://www.w3.org/2000/svg"
   xmlns="http://www.w3.org/2000/svg"
   xmlns:sodipodi="http://sodipodi.sourceforge.net/DTD/sodipodi-0.dtd"
   xmlns:inkscape="http://www.inkscape.org/namespaces/inkscape"
   version="1.1"
   id="Слой_1"
   x="0px"
   y="0px"
   viewBox="0 0 66.875691 66.888969"
   xml:space="preserve"
   sodipodi:docname="wB-bg-COSMOCOIN.svg"
   inkscape:version="0.92.3 (2405546, 2018-03-11)"
   width="66.875694"
   height="66.888969"><metadata
     id="metadata27"><rdf:RDF><cc:Work
         rdf:about=""><dc:format>image/svg+xml</dc:format><dc:type
           rdf:resource="http://purl.org/dc/dcmitype/StillImage" /></cc:Work></rdf:RDF></metadata><defs
     id="defs25">
	
	
	
	
	
	
	
</defs><sodipodi:namedview
     pagecolor="#ffffff"
     bordercolor="#666666"
     borderopacity="1"
     objecttolerance="10"
     gridtolerance="10"
     guidetolerance="10"
     inkscape:pageopacity="0"
     inkscape:pageshadow="2"
     inkscape:window-width="1366"
     inkscape:window-height="691"
     id="namedview23"
     showgrid="false"
     inkscape:zoom="3.6589148"
     inkscape:cx="45.200543"
     inkscape:cy="13.325222"
     inkscape:window-x="0"
     inkscape:window-y="0"
     inkscape:window-maximized="1"
     inkscape:current-layer="Слой_1" /><style
     type="text/css"
     id="style2">
	.st0{fill:#3F61AC;}
	.st1{fill:#FFFFFF;}
	.st2{fill:#2B388F;}
	.st3{fill:#58595B;}
</style><style
     id="style2-6"
     type="text/css">
	.st0{fill:#ED443E;}
	.st1{fill:#C2232F;}
</style><style
     id="style837"
     type="text/css">
	.st0{fill:#F6921E;}
	.st1{fill:#F05A28;}
	.st2{fill:#FFFFFF;}
	.st3{fill:#58595B;}
</style><style
     id="style2-3"
     type="text/css">
	.st0{fill:#ED443E;}
	.st1{fill:#C2232F;}
</style><path
     style="fill:#5599ff;fill-opacity:1;stroke-width:1"
     d="M 33.423394,0 C 24.858413,0 16.293543,3.2605 9.7761225,9.77792 c -13.03483,13.03484 -13.03483,34.25971 0,47.29456 6.2291105,6.22904 14.4185305,9.45891 22.6086705,9.80496 8.88219,0.2307 17.88004,-2.99916 24.685861,-9.80496 6.113769,-6.11369 9.343669,-14.07436 9.80504,-22.14906 l -0.11264,-0.11038 C 67.192384,25.85043 63.963534,16.67082 57.070554,9.77793 50.553233,3.2605 41.988263,0 33.423284,0 Z"
     id="path1213"
     inkscape:connector-curvature="0" /><path
     inkscape:connector-curvature="0"
     id="path1215"
     d="m 33.725553,2.4758004 c -4.00891,-0.0372 -7.91983,0.71459 -11.54339,2.13821 -0.0691,0.0267 -0.13823,0.053 -0.207081,0.0802 -0.002,10e-4 -0.004,0.002 -0.006,0.002 C 10.528663,9.2276104 2.4635318,20.37579 2.4635318,33.45319 c 0,13.69809 8.9131902,25.27882 21.1954402,29.35622 0.60136,0.21299 1.22394,0.41857 1.85889,0.5887 16.45964,4.30665 33.3743,-5.459 37.80359,-21.9893 0.55373,-2.06629 0.885611,-4.13862 1.01021,-6.19179 0,-10e-4 0,-10e-4 0,-0.002 0.0465,-0.60897 0.0805,-1.23427 0.0805,-1.86175 -0.0112,-1.90709 -0.196049,-3.77336 -0.53709,-5.58503 -0.037,-0.19991 -0.0768,-0.39897 -0.11763,-0.59783 -0.002,-0.0106 -0.004,-0.0213 -0.006,-0.0319 -2.28844,-11.08013 -10.59756,-20.4692496 -22.29664,-23.6040296 -2.58288,-0.69207 -5.175739,-1.03525 -7.729289,-1.05894 z m -0.3374,1.97997 c 7.430789,0 14.861689,2.82729 20.516169,8.4817496 6.00477,6.00473 8.807101,14.01107 8.406781,21.81723 -0.300261,7.00552 -3.10259,13.91088 -8.406781,19.21506 -0.87781,0.87781 -1.79847,1.68546 -2.75376,2.42646 -1.00324,0.7714 -2.06722,1.48662 -3.19225,2.13619 -7.35424,4.24602 -15.813129,4.88064 -23.24975,2.47359 -6.689129,-2.1032 -12.634099,-6.59728 -16.3846502,-13.09356 -4.17531,-7.23165 -4.86154,-15.49707 -2.67367,-22.88878 0.42288,-1.41736 0.95622,-2.80485 1.59368,-4.14885 0.0457,-0.0951 0.0898,-0.19088 0.13645,-0.28561 1.36393,-2.76437 3.1944312,-5.35461 5.4916102,-7.65173 5.65438,-5.6544596 13.085269,-8.4817496 20.516171,-8.4817496 z"
     style="fill:#ffffff;stroke-width:1.00000012" /><g
     style="fill:#ffffff;stroke-width:8.99999332"
     id="g4779"
     transform="matrix(0.33333359,0,0,0.33333359,16.771693,16.77782)"><g
       id="g4765"
       style="fill:#ffffff;stroke-width:8.99999332"><path
         id="path4759"
         d="M 89.277,5.009 C 81.459,5.465 67.385,6.805 60.957,10.667 52.697,15.63 44.546,24.947 37.97,33.891 l -13.117,1.715 c -2.531,0.331 -4.734,1.992 -5.749,4.334 l -3.076,7.099 c -0.244,0.562 -0.216,1.204 0.074,1.742 0.29,0.539 0.811,0.916 1.413,1.022 l 8.94,1.58 c -0.664,1.124 -1.231,2.105 -1.677,2.891 -1.194,2.104 -0.831,4.769 0.883,6.483 l 0.499,0.499 -2.12,2.12 c -2.135,2.136 -2.135,5.612 0,7.749 l 4.835,4.836 c 1.035,1.035 2.411,1.604 3.875,1.604 1.463,0 2.839,-0.57 3.874,-1.605 l 2.119,-2.119 0.499,0.499 c 1.023,1.023 2.381,1.586 3.823,1.586 0.93,0 1.849,-0.243 2.66,-0.703 0.786,-0.446 1.766,-1.012 2.89,-1.677 l 1.58,8.94 c 0.106,0.603 0.483,1.124 1.022,1.413 0.295,0.159 0.621,0.239 0.947,0.239 0.27,0 0.541,-0.055 0.795,-0.165 l 7.099,-3.075 C 62.4,79.883 64.061,77.68 64.392,75.149 L 66.107,62.032 C 75.051,55.455 84.367,47.305 89.331,39.045 93.193,32.617 94.534,18.543 94.989,10.725 95.076,9.221 94.556,7.791 93.525,6.697 92.438,5.541 90.89,4.916 89.277,5.009 Z M 20.705,46.305 22.774,41.53 c 0.458,-1.058 1.453,-1.808 2.597,-1.958 l 9.426,-1.232 c -2.351,3.4 -4.419,6.615 -6.123,9.374 z M 33.798,73.13 c -0.559,0.559 -1.534,0.559 -2.092,0 l -4.835,-4.835 c -0.577,-0.577 -0.577,-1.516 0,-2.092 l 2.12,-2.119 6.927,6.927 z m 26.631,1.5 c -0.15,1.144 -0.9,2.139 -1.958,2.597 l -4.775,2.069 -1.409,-7.969 c 2.758,-1.703 5.974,-3.772 9.374,-6.123 z M 85.905,36.984 c -9.159,15.244 -34.579,30.459 -42.152,34.76 -0.538,0.304 -1.242,0.204 -1.68,-0.233 L 40.162,69.6 C 40.161,69.599 40.161,69.598 40.16,69.597 L 30.404,59.841 C 30.403,59.84 30.402,59.84 30.401,59.839 L 28.49,57.928 c -0.445,-0.446 -0.542,-1.137 -0.233,-1.68 4.3,-7.573 19.516,-32.993 34.76,-42.152 C 68.923,10.548 83.511,9.352 89.596,9 c 0.39,0 0.753,0.157 1.022,0.441 0.268,0.284 0.403,0.657 0.38,1.05 -0.349,5.999 -1.545,20.587 -5.093,26.493 z"
         inkscape:connector-curvature="0"
         style="fill:#ffffff;stroke-width:8.99999332" /><path
         id="path4761"
         d="m 69.408,20.262 c -2.76,0 -5.354,1.075 -7.306,3.026 -4.027,4.028 -4.027,10.583 0,14.61 1.951,1.951 4.545,3.026 7.305,3.026 2.759,0 5.354,-1.074 7.305,-3.026 4.028,-4.028 4.028,-10.582 0,-14.611 -1.95,-1.951 -4.544,-3.025 -7.304,-3.025 z m 4.477,14.807 c -1.196,1.196 -2.786,1.854 -4.477,1.854 -1.691,0 -3.281,-0.658 -4.477,-1.854 -2.468,-2.469 -2.468,-6.485 0,-8.954 1.196,-1.196 2.786,-1.854 4.477,-1.854 1.691,0 3.281,0.658 4.477,1.854 2.469,2.469 2.469,6.486 0,8.954 z"
         inkscape:connector-curvature="0"
         style="fill:#ffffff;stroke-width:8.99999332" /><path
         id="path4763"
         d="m 16.788,72.151 c -2.955,0 -5.733,1.151 -7.822,3.24 -3.937,3.936 -3.993,15.379 -3.964,17.633 0.014,1.084 0.89,1.96 1.975,1.975 L 7.256,95 c 4.026,0 13.776,-0.386 17.354,-3.964 2.089,-2.089 3.24,-4.867 3.24,-7.822 0,-2.955 -1.151,-5.733 -3.24,-7.822 -2.089,-2.089 -4.867,-3.241 -7.822,-3.241 z m 4.994,16.056 c -1.723,1.723 -7.505,2.603 -12.759,2.765 0.149,-4.807 1.003,-10.986 2.771,-12.753 1.334,-1.334 3.107,-2.068 4.994,-2.068 1.887,0 3.66,0.734 4.994,2.068 1.334,1.334 2.068,3.107 2.068,4.994 0,1.887 -0.734,3.66 -2.068,4.994 z"
         inkscape:connector-curvature="0"
         style="fill:#ffffff;stroke-width:8.99999332" /></g></g></svg>