<?xml version="1.0" encoding="UTF-8" standalone="no"?>
<!-- Roman Inozemtsev: https://github.com/mir-one/  -->

<svg
   xmlns:dc="http://purl.org/dc/elements/1.1/"
   xmlns:cc="http://creativecommons.org/ns#"
   xmlns:rdf="http://www.w3.org/1999/02/22-rdf-syntax-ns#"
   xmlns:svg="http://www.w3.org/2000/svg"
   xmlns="http://www.w3.org/2000/svg"
   xmlns:sodipodi="http://sodipodi.sourceforge.net/DTD/sodipodi-0.dtd"
   xmlns:inkscape="http://www.inkscape.org/namespaces/inkscape"
   version="1.1"
   id="Слой_1"
   x="0px"
   y="0px"
   viewBox="0 0 66.875691 66.888969"
   xml:space="preserve"
   sodipodi:docname="wB-bg-FISH.svg"
   inkscape:version="0.92.3 (2405546, 2018-03-11)"
   width="66.875694"
   height="66.888969"><metadata
     id="metadata27"><rdf:RDF><cc:Work
         rdf:about=""><dc:format>image/svg+xml</dc:format><dc:type
           rdf:resource="http://purl.org/dc/dcmitype/StillImage" /></cc:Work></rdf:RDF></metadata><defs
     id="defs25">
	
	
	
	
	
	
	
</defs><sodipodi:namedview
     pagecolor="#ffffff"
     bordercolor="#666666"
     borderopacity="1"
     objecttolerance="10"
     gridtolerance="10"
     guidetolerance="10"
     inkscape:pageopacity="0"
     inkscape:pageshadow="2"
     inkscape:window-width="1366"
     inkscape:window-height="691"
     id="namedview23"
     showgrid="false"
     inkscape:zoom="3.6589148"
     inkscape:cx="33.437845"
     inkscape:cy="33.444487"
     inkscape:window-x="0"
     inkscape:window-y="0"
     inkscape:window-maximized="1"
     inkscape:current-layer="Слой_1" /><style
     type="text/css"
     id="style2">
	.st0{fill:#3F61AC;}
	.st1{fill:#FFFFFF;}
	.st2{fill:#2B388F;}
	.st3{fill:#58595B;}
</style><style
     id="style2-6"
     type="text/css">
	.st0{fill:#ED443E;}
	.st1{fill:#C2232F;}
</style><style
     id="style837"
     type="text/css">
	.st0{fill:#F6921E;}
	.st1{fill:#F05A28;}
	.st2{fill:#FFFFFF;}
	.st3{fill:#58595B;}
</style><style
     id="style2-3"
     type="text/css">
	.st0{fill:#ED443E;}
	.st1{fill:#C2232F;}
</style><path
     inkscape:connector-curvature="0"
     id="path1173"
     d="m 33.423391,0 c -8.56498,0 -17.12985,3.26051 -23.64727,9.77792 -13.034828,13.034839 -13.034828,34.25972 0,47.29457 6.22911,6.22904 14.41853,9.458904 22.60867,9.804952 8.88219,0.230705 17.88004,-2.999162 24.68586,-9.804952 6.11377,-6.1137 9.34367,-14.07437 9.80504,-22.14906 l -0.11264,-0.11038 C 67.192381,25.85044 63.963531,16.67083 57.070551,9.77793 50.553231,3.26051 41.988261,0 33.423281,0 Z"
     style="fill:#0055d4;fill-opacity:1;stroke-width:1" /><path
     style="fill:#ffffff;stroke-width:1.00000012"
     d="m 33.725551,2.47558 c -4.00891,-0.0372 -7.91983,0.7146 -11.54339,2.13822 -0.0691,0.0267 -0.13823,0.053 -0.20708,0.0802 -0.002,0.001 -0.004,0.002 -0.006,0.002 -11.44042,4.53139 -19.50555,15.679579 -19.50555,28.75698 0,13.69808 8.91319,25.27882 21.19544,29.35622 0.60136,0.21298 1.22394,0.41857 1.85889,0.58869 16.45964,4.306649 33.3743,-5.459 37.80359,-21.9893 0.55373,-2.06629 0.88561,-4.13861 1.01021,-6.19179 0,-10e-4 0,-0.002 0,-0.002 0.0465,-0.60897 0.0805,-1.23427 0.0805,-1.86175 -0.0112,-1.90709 -0.19605,-3.77335 -0.53709,-5.585031 -0.037,-0.199909 -0.0768,-0.398969 -0.11763,-0.597819 -0.002,-0.0106 -0.004,-0.0213 -0.006,-0.0319 C 61.463001,16.05816 53.153881,6.66904 41.454801,3.53427 38.871921,2.84219 36.279061,2.49901 33.725511,2.47532 Z m -0.3374,1.97997 c 7.43079,0 14.86169,2.82729 20.51617,8.48175 6.00477,6.00473 8.8071,14.01107 8.40678,21.81723 -0.30026,7.00553 -3.10259,13.91088 -8.40678,19.21506 -0.87781,0.87781 -1.79847,1.68546 -2.75376,2.42646 -1.00324,0.7714 -2.06722,1.48662 -3.19225,2.13619 -7.35424,4.24602 -15.81313,4.88064 -23.24975,2.47359 -6.68913,-2.1032 -12.6341,-6.59727 -16.38465,-13.09355 -4.17531,-7.23166 -4.86154,-15.49708 -2.67367,-22.88878 0.42288,-1.41736 0.95622,-2.80485 1.59368,-4.14886 0.0457,-0.0951 0.0898,-0.19088 0.13645,-0.28561 1.36393,-2.76436 3.19443,-5.35461 5.49161,-7.65173 5.65438,-5.65446 13.08527,-8.48175 20.51617,-8.48175 z"
     id="path1175"
     inkscape:connector-curvature="0" /><g
     style="fill:#ffffff;stroke-width:7.93669701"
     id="g1122"
     transform="matrix(0.37799099,0,0,0.37799099,16.238361,14.84635)"><path
       id="path1108"
       d="M 82.499359,31.597723 C 81.533127,30.822432 80.622849,30.32057 79.755165,30.002745 77.557388,26.169191 68.902153,13.731398 49.4935,12.730375 V 5.4877338 c 0,-1.2419043 -0.926331,-2.2882237 -2.158634,-2.4394121 C 46.704914,2.9703276 31.697668,1.2724584 19.593,11.980433 9.9553442,20.508177 5.06812,34.275917 5.06812,52.899681 5.06812,80.570747 26.636459,95.5 46.930496,95.5 c 1.357094,0 2.457409,-1.099114 2.457409,-2.457413 V 72.91774 c 0,-0.784737 -0.37677,-1.52388 -1.01152,-1.987045 -0.633553,-0.46077 -1.453087,-0.595154 -2.201832,-0.350373 -6.840672,2.205429 -23.704323,5.766152 -30.837025,0.205933 1.391744,-2.987923 5.103507,-8.713131 14.069516,-12.433895 v 9.403377 c 0,1.358292 1.100315,2.457413 2.457411,2.457413 5.726559,0 16.282295,-3.288651 17.315266,-15.372017 0.201584,-0.0015 0.391769,-0.0108 0.595753,-0.0108 h 28.340621 c 0.657547,0 1.286301,-0.26278 1.748261,-0.730744 0.461967,-0.467964 0.717545,-1.100315 0.709145,-1.757866 -0.0019,-0.166488 -0.05144,-1.922702 -0.770035,-4.277069 2.220726,-1.792213 5.931442,-5.401233 6.125221,-9.639457 0.0828,-1.792664 -0.446364,-4.432461 -3.429328,-6.827475 z M 44.473084,76.176689 V 90.515587 C 33.195152,89.874832 24.539021,84.825623 18.718269,77.719772 27.523189,79.989998 38.95591,77.61898 44.473084,76.176689 Z M 22.800354,15.704947 C 30.683746,8.6986866 40.277008,7.834753 44.52708,7.834753 c 0.018,0 0.0348,0 0.0516,0 v 4.899523 c -12.092071,0.6442 -22.670456,5.94914 -29.826103,14.173307 2.039541,-4.474905 4.708437,-8.234514 8.047779,-11.202636 z m 11.521511,49.341402 v -8.351811 c 2.876782,-0.77919 6.14938,-1.364593 9.898338,-1.654671 -0.929027,7.24894 -6.521198,9.387326 -9.898338,10.006482 z m 15.45361,-15.130837 c -1.064465,0 -2.099987,0.0207 -3.109559,0.05909 -1.822811,-0.13934 -12.344051,-1.422638 -12.344051,-12.56213 0,-11.923483 12.151466,-13.098193 12.698624,-13.144989 1.349895,-0.106791 2.359016,-1.287501 2.254627,-2.638596 -0.105595,-1.353497 -1.274303,-2.369818 -2.639797,-2.260626 -5.95874,0.461964 -17.228274,4.827227 -17.228274,18.044211 0,6.784427 2.959422,11.127491 6.649138,13.795486 C 22.08956,54.06464 15.381025,61.072701 12.281364,66.093414 10.78373,61.819496 9.9829416,57.332142 9.9829416,52.899681 c 0,-19.830871 16.2755474,-35.366073 37.0531464,-35.366073 15.988018,0 24.116493,8.586689 27.26445,13.050645 -1.798958,1.076167 -3.313248,2.839432 -4.611397,4.358815 -2.618194,3.062164 -5.325187,6.22752 -9.799644,6.22752 -9.212891,0 -10.568783,-11.137543 -10.621582,-11.611506 -0.147587,-1.347496 -1.363094,-2.314623 -2.70459,-2.175432 -1.348698,0.143988 -2.326622,1.354694 -2.181431,2.704592 0.590355,5.532774 4.593247,15.997167 15.507603,15.997167 4.178078,0 7.272194,-1.767765 9.706657,-3.909298 3.553673,2.333821 5.043061,5.536221 5.643761,7.739403 h -25.46444 z m 27.877151,-6.49675 c -1.082161,-1.683922 -2.565552,-3.372192 -4.603592,-4.847625 0.122994,-0.143391 0.25618,-0.29443 0.37542,-0.433918 3.556526,-4.157681 4.11808,-4.215275 5.998337,-2.706994 1.487884,1.195111 1.623474,2.150238 1.597076,2.765789 -0.07889,1.786961 -1.793556,3.783158 -3.367241,5.222748 z"
       inkscape:connector-curvature="0"
       style="fill:#ffffff;stroke-width:7.93669701" /><circle
       id="circle1110"
       r="3.4768071"
       cy="30.563814"
       cx="60.416294"
       style="fill:#ffffff;stroke-width:7.93669701" /></g></svg>