<?xml version="1.0" encoding="UTF-8" standalone="no"?>
<!-- Roman Inozemtsev: https://github.com/mir-one/  -->

<svg
   xmlns:dc="http://purl.org/dc/elements/1.1/"
   xmlns:cc="http://creativecommons.org/ns#"
   xmlns:rdf="http://www.w3.org/1999/02/22-rdf-syntax-ns#"
   xmlns:svg="http://www.w3.org/2000/svg"
   xmlns="http://www.w3.org/2000/svg"
   xmlns:sodipodi="http://sodipodi.sourceforge.net/DTD/sodipodi-0.dtd"
   xmlns:inkscape="http://www.inkscape.org/namespaces/inkscape"
   version="1.1"
   id="Слой_1"
   x="0px"
   y="0px"
   viewBox="0 0 66.875691 66.888969"
   xml:space="preserve"
   sodipodi:docname="wB-bg-ENERGY.svg"
   inkscape:version="0.92.3 (2405546, 2018-03-11)"
   width="66.875694"
   height="66.888969"><metadata
     id="metadata27"><rdf:RDF><cc:Work
         rdf:about=""><dc:format>image/svg+xml</dc:format><dc:type
           rdf:resource="http://purl.org/dc/dcmitype/StillImage" /></cc:Work></rdf:RDF></metadata><defs
     id="defs25">
	
	
	
	
	
	
	
</defs><sodipodi:namedview
     pagecolor="#ffffff"
     bordercolor="#666666"
     borderopacity="1"
     objecttolerance="10"
     gridtolerance="10"
     guidetolerance="10"
     inkscape:pageopacity="0"
     inkscape:pageshadow="2"
     inkscape:window-width="1366"
     inkscape:window-height="691"
     id="namedview23"
     showgrid="false"
     inkscape:zoom="3.6589148"
     inkscape:cx="27.954662"
     inkscape:cy="16.645583"
     inkscape:window-x="0"
     inkscape:window-y="0"
     inkscape:window-maximized="1"
     inkscape:current-layer="Слой_1" /><style
     type="text/css"
     id="style2">
	.st0{fill:#3F61AC;}
	.st1{fill:#FFFFFF;}
	.st2{fill:#2B388F;}
	.st3{fill:#58595B;}
</style><style
     id="style2-6"
     type="text/css">
	.st0{fill:#ED443E;}
	.st1{fill:#C2232F;}
</style><style
     id="style837"
     type="text/css">
	.st0{fill:#F6921E;}
	.st1{fill:#F05A28;}
	.st2{fill:#FFFFFF;}
	.st3{fill:#58595B;}
</style><style
     id="style2-3"
     type="text/css">
	.st0{fill:#ED443E;}
	.st1{fill:#C2232F;}
</style><path
     style="fill:#d35f5f;fill-opacity:1;stroke-width:1"
     d="M 33.423394,0 C 24.858413,0 16.293543,3.2605 9.7761225,9.77792 c -13.03483,13.03484 -13.03483,34.25971 0,47.29456 6.2291105,6.22904 14.4185305,9.45891 22.6086705,9.80496 8.88219,0.2307 17.88004,-2.99916 24.685861,-9.80496 6.113769,-6.11369 9.343669,-14.07436 9.80504,-22.14906 l -0.11264,-0.11038 C 67.192384,25.85043 63.963534,16.67082 57.070554,9.77793 50.553233,3.2605 41.988263,0 33.423284,0 Z"
     id="path1213"
     inkscape:connector-curvature="0" /><path
     inkscape:connector-curvature="0"
     id="path1215"
     d="m 33.725554,2.4758 c -4.00891,-0.0372 -7.91983,0.71459 -11.54339,2.13821 -0.0691,0.0267 -0.13823,0.053 -0.207081,0.0802 -0.002,0.001 -0.004,0.002 -0.006,0.002 -11.440419,4.5314 -19.5055505,15.67958 -19.5055505,28.75698 0,13.69809 8.9131905,25.27882 21.1954405,29.35622 0.60136,0.21299 1.22394,0.41857 1.85889,0.5887 16.45964,4.30665 33.3743,-5.459 37.80359,-21.9893 0.55373,-2.06629 0.885611,-4.13862 1.01021,-6.19179 0,-10e-4 0,-10e-4 0,-0.002 0.0465,-0.60897 0.0805,-1.23427 0.0805,-1.86175 -0.0112,-1.90709 -0.196049,-3.77336 -0.53709,-5.58503 -0.037,-0.19991 -0.0768,-0.39897 -0.11763,-0.59783 -0.002,-0.0106 -0.004,-0.0213 -0.006,-0.0319 C 61.463003,16.05838 53.153883,6.66926 41.454803,3.53448 38.871923,2.84241 36.279064,2.49923 33.725514,2.47554 Z m -0.3374,1.97997 c 7.430789,0 14.861689,2.82729 20.516169,8.48175 6.00477,6.00473 8.807101,14.01107 8.406781,21.81723 -0.300261,7.00552 -3.10259,13.91088 -8.406781,19.21506 -0.87781,0.87781 -1.79847,1.68546 -2.75376,2.42646 -1.00324,0.7714 -2.06722,1.48662 -3.19225,2.13619 -7.35424,4.24602 -15.813129,4.88064 -23.24975,2.47359 -6.689129,-2.1032 -12.634099,-6.59728 -16.3846505,-13.09356 -4.17531,-7.23165 -4.86154,-15.49707 -2.67367,-22.88878 0.42288,-1.41736 0.95622,-2.80485 1.59368,-4.14885 0.0457,-0.0951 0.0898,-0.19088 0.13645,-0.28561 1.36393,-2.76437 3.1944315,-5.35461 5.4916105,-7.65173 5.65438,-5.65446 13.085269,-8.48175 20.516171,-8.48175 z"
     style="fill:#ffffff;stroke-width:1.00000012" /><g
     style="clip-rule:evenodd;fill:#ffffff;fill-rule:evenodd;stroke-width:6.83400011;image-rendering:optimizeQuality;shape-rendering:geometricPrecision;text-rendering:geometricPrecision"
     id="g991"
     transform="matrix(0.00438982,0,0,0.00438982,11.488744,11.49686)"><g
       id="g973"
       style="fill:#ffffff;stroke-width:6.83400011"><path
         id="path957"
         d="m 5079,2874 c -1593,0 -2532,1778 -1663,3091 504,761 1002,627 1002,911 l 1,1182 c 682,0 633,-68 633,558 h 100 c 0,-624 -47,-558 621,-558 V 6861 c 0,-279 487,-156 977,-910 854,-1314 -87,-3077 -1671,-3077 z m -1678,314 c 1491,-1492 4051,-429 4051,1678 0,901 -509,1712 -1298,2115 v 1267 c 0,254 -339,191 -621,191 0,631 54,558 -671,558 -248,0 -191,-315 -191,-558 -783,0 -633,179 -633,-1441 C 2579,6284 2246,4343 3401,3188 Z"
         class="fil0"
         inkscape:connector-curvature="0"
         style="fill:#ffffff;fill-rule:nonzero;stroke-width:6.83400011" /><path
         id="path959"
         d="m 7551,2166 c 178,-177 447,92 270,269 l -497,496 c -177,178 -446,-92 -269,-269 z"
         class="fil0"
         inkscape:connector-curvature="0"
         style="fill:#ffffff;fill-rule:nonzero;stroke-width:6.83400011" /><path
         id="path961"
         d="m 7821,7538 c 177,177 -92,447 -270,269 l -496,-496 c -177,-177 92,-446 269,-269 z"
         class="fil0"
         inkscape:connector-curvature="0"
         style="fill:#ffffff;fill-rule:nonzero;stroke-width:6.83400011" /><path
         id="path963"
         d="m 1201,5177 c -250,0 -250,-381 0,-381 h 702 c 251,0 251,381 0,381 z"
         class="fil0"
         inkscape:connector-curvature="0"
         style="fill:#ffffff;fill-rule:nonzero;stroke-width:6.83400011" /><path
         id="path965"
         d="m 2675,7042 c 178,-177 447,92 270,269 l -496,496 c -178,178 -447,-92 -270,-269 z"
         class="fil0"
         inkscape:connector-curvature="0"
         style="fill:#ffffff;fill-rule:nonzero;stroke-width:6.83400011" /><path
         id="path967"
         d="m 2945,2662 c 177,177 -92,447 -270,269 l -496,-496 c -177,-177 92,-446 270,-269 z"
         class="fil0"
         inkscape:connector-curvature="0"
         style="fill:#ffffff;fill-rule:nonzero;stroke-width:6.83400011" /><path
         id="path969"
         d="m 5190,1890 c 0,251 -381,251 -381,0 v -702 c 0,-251 381,-251 381,0 z"
         class="fil0"
         inkscape:connector-curvature="0"
         style="fill:#ffffff;fill-rule:nonzero;stroke-width:6.83400011" /><path
         id="path971"
         d="m 8097,5177 c -251,0 -251,-381 0,-381 h 702 c 250,0 250,381 0,381 z"
         class="fil0"
         inkscape:connector-curvature="0"
         style="fill:#ffffff;fill-rule:nonzero;stroke-width:6.83400011" /></g></g></svg>