<?xml version="1.0" encoding="UTF-8" standalone="no"?>
<!-- Roman Inozemtsev: https://github.com/mir-one/  -->

<svg
   xmlns:dc="http://purl.org/dc/elements/1.1/"
   xmlns:cc="http://creativecommons.org/ns#"
   xmlns:rdf="http://www.w3.org/1999/02/22-rdf-syntax-ns#"
   xmlns:svg="http://www.w3.org/2000/svg"
   xmlns="http://www.w3.org/2000/svg"
   xmlns:sodipodi="http://sodipodi.sourceforge.net/DTD/sodipodi-0.dtd"
   xmlns:inkscape="http://www.inkscape.org/namespaces/inkscape"
   version="1.1"
   id="Слой_1"
   x="0px"
   y="0px"
   viewBox="0 0 66.875691 66.888977"
   xml:space="preserve"
   sodipodi:docname="wB-bg-FARM.svg"
   inkscape:version="0.92.3 (2405546, 2018-03-11)"
   width="66.875694"
   height="66.888977"><metadata
     id="metadata27"><rdf:RDF><cc:Work
         rdf:about=""><dc:format>image/svg+xml</dc:format><dc:type
           rdf:resource="http://purl.org/dc/dcmitype/StillImage" /></cc:Work></rdf:RDF></metadata><defs
     id="defs25">
	
	
	
	
	
	
	
</defs><sodipodi:namedview
     pagecolor="#ffffff"
     bordercolor="#666666"
     borderopacity="1"
     objecttolerance="10"
     gridtolerance="10"
     guidetolerance="10"
     inkscape:pageopacity="0"
     inkscape:pageshadow="2"
     inkscape:window-width="1366"
     inkscape:window-height="691"
     id="namedview23"
     showgrid="false"
     inkscape:zoom="3.6589148"
     inkscape:cx="-69.068641"
     inkscape:cy="96.450669"
     inkscape:window-x="0"
     inkscape:window-y="0"
     inkscape:window-maximized="1"
     inkscape:current-layer="Слой_1" /><style
     type="text/css"
     id="style2">
	.st0{fill:#3F61AC;}
	.st1{fill:#FFFFFF;}
	.st2{fill:#2B388F;}
	.st3{fill:#58595B;}
</style><style
     id="style2-6"
     type="text/css">
	.st0{fill:#ED443E;}
	.st1{fill:#C2232F;}
</style><style
     id="style837"
     type="text/css">
	.st0{fill:#F6921E;}
	.st1{fill:#F05A28;}
	.st2{fill:#FFFFFF;}
	.st3{fill:#58595B;}
</style><style
     id="style2-3"
     type="text/css">
	.st0{fill:#ED443E;}
	.st1{fill:#C2232F;}
</style><path
     style="fill:#71c837;fill-opacity:1;stroke-width:1"
     d="m 33.423392,0 c -8.56498,0 -17.12985,3.26051 -23.6472695,9.77792 -13.03483,13.03484 -13.03483,34.25972 0,47.29457 6.2291095,6.229044 14.4185305,9.458904 22.6086705,9.804954 8.88219,0.2307 17.880039,-2.99916 24.685859,-9.804954 6.11377,-6.1137 9.34367,-14.07437 9.80504,-22.14906 l -0.11264,-0.11038 C 67.192382,25.85044 63.963532,16.67083 57.070552,9.77793 50.553232,3.26051 41.988263,0 33.423283,0 Z"
     id="path1167"
     inkscape:connector-curvature="0" /><path
     inkscape:connector-curvature="0"
     id="path1169"
     d="m 33.725552,2.47558 c -4.00891,-0.0372 -7.91983,0.7146 -11.543391,2.13822 -0.0691,0.0267 -0.138229,0.053 -0.207078,0.0802 -0.002,0.001 -0.004,0.002 -0.006,0.002 -11.44042,4.53139 -19.5055515,15.67958 -19.5055515,28.75698 0,13.69808 8.9131915,25.278824 21.1954415,29.356224 0.60136,0.21298 1.22394,0.41857 1.85889,0.58869 16.45964,4.30664 33.3743,-5.459004 37.80359,-21.989304 0.55373,-2.06629 0.88561,-4.13861 1.01021,-6.19179 0,-10e-4 0,-0.002 0,-0.002 0.0465,-0.60897 0.0805,-1.23427 0.0805,-1.86175 -0.0112,-1.90709 -0.19605,-3.77335 -0.53709,-5.58503 -0.037,-0.19991 -0.0768,-0.39897 -0.11763,-0.59782 -0.002,-0.0106 -0.004,-0.0213 -0.006,-0.0319 C 61.463003,16.05816 53.153883,6.66904 41.454803,3.53427 38.871922,2.84219 36.279063,2.49901 33.725512,2.47532 Z m -0.337401,1.97997 c 7.43079,0 14.861691,2.82729 20.516171,8.48175 6.00477,6.00473 8.807101,14.01107 8.40678,21.81723 -0.300259,7.00553 -3.10259,13.91088 -8.40678,19.21506 -0.877809,0.87781 -1.798469,1.68546 -2.75376,2.42646 -1.00324,0.7714 -2.067221,1.48662 -3.192251,2.136194 -7.35424,4.24602 -15.81313,4.88064 -23.24975,2.47359 -6.68913,-2.1032 -12.6341,-6.597274 -16.3846495,-13.093554 -4.17531,-7.23166 -4.86154,-15.49708 -2.67367,-22.88878 0.42288,-1.41736 0.95622,-2.80485 1.59368,-4.14886 0.0457,-0.0951 0.0898,-0.19088 0.13645,-0.28561 1.36393,-2.76436 3.1944295,-5.35461 5.4916095,-7.65173 5.65438,-5.65446 13.08527,-8.48175 20.51617,-8.48175 z"
     style="fill:#ffffff;stroke-width:1.00000012" /><g
     style="fill:#ffffff;stroke-width:6.80952358"
     id="g1106"
     transform="matrix(0.48951049,0,0,0.48951049,138.65812,-160.91565)"><g
       id="g1089"
       style="fill:#ffffff;stroke-width:6.80952358"><path
         id="path1077"
         d="m -202.5,413.1 c 0,-0.1 0.1,-0.1 0.1,-0.2 0,0 0,-0.1 0.1,-0.1 0,-0.1 0,-0.1 0.1,-0.2 0,-0.1 0,-0.1 0,-0.2 0,0 0,0 0,0 0.4,-2.4 1.4,-5.7 4.1,-7.9 3.5,-2.9 8.9,-3.5 13.6,-1.4 0,0 0,0 0,0 0.1,0 0.2,0.1 0.3,0.1 0,0 0.1,0 0.1,0 0.1,0 0.2,0 0.2,0 0,0 0.1,0 0.1,0 0,0 0,0 0,0 0,0 0.1,0 0.1,0 0,0 0.1,0 0.1,0 0.1,0 0.1,0 0.2,0 0.1,0 0.1,0 0.2,-0.1 0,0 0.1,0 0.1,-0.1 0.1,0 0.1,-0.1 0.2,-0.1 0,0 0.1,-0.1 0.1,-0.1 0.1,0 0.1,-0.1 0.2,-0.1 0,0 0.1,-0.1 0.1,-0.1 0,0 0.1,-0.1 0.1,-0.2 0,0 0.1,-0.1 0.1,-0.1 0,-0.1 0.1,-0.1 0.1,-0.2 0,0 0,-0.1 0.1,-0.1 0,0 0,0 0,0 0,-0.1 0,-0.1 0.1,-0.2 0,-0.1 0,-0.1 0,-0.2 0,-0.1 0,-0.1 0,-0.2 0,-0.1 0,-0.1 0,-0.2 0,0 0,0 0,-0.1 -0.2,-3.6 -1.4,-6.5 -3.5,-8.5 -1.9,-1.9 -4.1,-2.6 -6,-2.9 -2.3,-0.5 -4.5,-0.7 -6.6,-0.9 V 378 c 0,-1.1 -0.9,-2 -2,-2 -1.1,0 -2,0.9 -2,2 v 10.8 c -1.4,0 -2.8,0 -4.3,0.1 v -0.1 c 0,-0.3 -0.1,-0.5 -0.2,-0.7 l -4.7,-15.4 h 0.6 c 1.1,0 2,-0.9 2,-2 0,-1.1 -0.9,-2 -2,-2 h -28 c -1.1,0 -2,0.9 -2,2 0,1.1 0.9,2 2,2 h 1.1 v 16.2 h -6.9 c -1.1,0 -2,0.9 -2,2 0,1.1 0.9,2 2,2 h 19.1 c 0.2,0.5 0.5,1.1 0.8,1.8 1.6,2.9 3.6,5.6 5.9,7.9 v 9.6 c 0,1.1 0.9,2 2,2 h 12.3 c 0,0 0,0 0,0 0,0 0,0 0,0 0.1,0 0.3,0 0.4,0 0,0 0.1,0 0.1,0 0.1,0 0.2,0 0.2,-0.1 0,0 0.1,0 0.1,-0.1 0.1,0 0.1,-0.1 0.2,-0.1 0,0 0.1,-0.1 0.1,-0.1 0.1,0 0.1,-0.1 0.2,-0.1 0,0 0.1,-0.1 0.1,-0.1 0,-0.1 0.1,-0.1 0.1,-0.2 0.4,-0.2 0.4,-0.2 0.4,-0.3 z m 14.6,-17.6 c 0.9,0.8 1.4,1.8 1.7,2.8 -5.2,-1.2 -10.6,-0.1 -14.4,3.1 -2.5,2.1 -4.3,5 -5.2,8.6 h -0.3 v -17.2 c 2.1,-0.1 4.2,-0.2 6.2,-0.1 2.4,0.1 5.2,0.3 7.9,0.9 1.3,0.3 2.8,0.6 4.1,1.9 z m -45.5,-22.9 h 5.3 v 16.2 h -5.3 z m 12.6,20.2 c -0.5,-1 -0.9,-1.9 -1.3,-2.7 -0.3,-0.7 -1,-1.2 -1.8,-1.2 h -0.2 v -16.2 h 8.8 l 5.2,16.7 V 410 h -4.4 v -8.4 c 0,-0.5 -0.2,-1.1 -0.6,-1.5 -2.2,-2 -4.2,-4.6 -5.7,-7.3 z"
         inkscape:connector-curvature="0"
         style="fill:#ffffff;stroke-width:6.80952358" /><path
         id="path1079"
         d="m -205.8,416.5 h -13 c -1.1,0 -2,0.9 -2,2 0,1.1 0.9,2 2,2 h 13 c 1.1,0 2,-0.9 2,-2 0,-1.1 -0.9,-2 -2,-2 z"
         inkscape:connector-curvature="0"
         style="fill:#ffffff;stroke-width:6.80952358" /><path
         id="path1081"
         d="m -190,403.8 c -6,0 -10.8,4.8 -10.8,10.8 0,6 4.8,10.8 10.8,10.8 6,0 10.8,-4.8 10.8,-10.8 0,-6 -4.9,-10.8 -10.8,-10.8 z m 0,17.5 c -3.7,0 -6.8,-3.1 -6.8,-6.8 0,-3.7 3.1,-6.8 6.8,-6.8 3.7,0 6.8,3.1 6.8,6.8 0,3.7 -3.1,6.8 -6.8,6.8 z"
         inkscape:connector-curvature="0"
         style="fill:#ffffff;stroke-width:6.80952358" /><path
         id="path1083"
         d="m -236.1,395 c -8.1,0 -14.6,6.5 -14.6,14.6 0,8 6.5,14.6 14.6,14.6 8.1,0 14.6,-6.5 14.6,-14.6 0,-8 -6.6,-14.6 -14.6,-14.6 z m 0,25.3 c -5.8,0 -10.6,-4.8 -10.6,-10.6 0,-5.8 4.8,-10.6 10.6,-10.6 5.8,0 10.6,4.8 10.6,10.6 0,5.8 -4.8,10.6 -10.6,10.6 z"
         inkscape:connector-curvature="0"
         style="fill:#ffffff;stroke-width:6.80952358" /><path
         id="path1085"
         d="m -190,411.5 c -1.7,0 -3,1.3 -3,3 0,1.7 1.3,3 3,3 1.7,0 3,-1.3 3,-3 0,-1.7 -1.4,-3 -3,-3 z m 0,4 c -0.6,0 -1,-0.4 -1,-1 0,-0.6 0.4,-1 1,-1 0.6,0 1,0.4 1,1 0,0.6 -0.5,1 -1,1 z"
         inkscape:connector-curvature="0"
         style="fill:#ffffff;stroke-width:6.80952358" /><path
         id="path1087"
         d="m -236.1,406.7 c -1.7,0 -3,1.3 -3,3 0,1.7 1.3,3 3,3 1.7,0 3,-1.3 3,-3 0,-1.7 -1.4,-3 -3,-3 z m 0,4 c -0.6,0 -1,-0.4 -1,-1 0,-0.6 0.4,-1 1,-1 0.6,0 1,0.4 1,1 0,0.6 -0.5,1 -1,1 z"
         inkscape:connector-curvature="0"
         style="fill:#ffffff;stroke-width:6.80952358" /></g></g></svg>