<?xml version="1.0" encoding="UTF-8" standalone="no"?>
<!-- Roman Inozemtsev: https://github.com/mir-one/  -->

<svg
   xmlns:dc="http://purl.org/dc/elements/1.1/"
   xmlns:cc="http://creativecommons.org/ns#"
   xmlns:rdf="http://www.w3.org/1999/02/22-rdf-syntax-ns#"
   xmlns:svg="http://www.w3.org/2000/svg"
   xmlns="http://www.w3.org/2000/svg"
   xmlns:xlink="http://www.w3.org/1999/xlink"
   xmlns:sodipodi="http://sodipodi.sourceforge.net/DTD/sodipodi-0.dtd"
   xmlns:inkscape="http://www.inkscape.org/namespaces/inkscape"
   version="1.1"
   id="Слой_1"
   x="0px"
   y="0px"
   viewBox="0 0 66.875691 66.888969"
   xml:space="preserve"
   sodipodi:docname="wB-bg-CITY.svg"
   inkscape:version="0.92.3 (2405546, 2018-03-11)"
   width="66.875694"
   height="66.888969"><metadata
     id="metadata27"><rdf:RDF><cc:Work
         rdf:about=""><dc:format>image/svg+xml</dc:format><dc:type
           rdf:resource="http://purl.org/dc/dcmitype/StillImage" /></cc:Work></rdf:RDF></metadata><defs
     id="defs25">
	
	
	
	
	
	
	
<linearGradient
   inkscape:collect="always"
   xlink:href="#linearGradient1913"
   id="linearGradient1195"
   gradientUnits="userSpaceOnUse"
   gradientTransform="matrix(0.10400573,0,0,0.10400573,1477.0817,-224.55189)"
   x1="-13987.585"
   y1="2798.7959"
   x2="-13757.8"
   y2="2182.2871" /><linearGradient
   inkscape:collect="always"
   id="linearGradient1913"><stop
     style="stop-color:#1463ff;stop-opacity:1"
     offset="0"
     id="stop1909" /><stop
     style="stop-color:#518cff;stop-opacity:1"
     offset="1"
     id="stop1911" /></linearGradient></defs><sodipodi:namedview
     pagecolor="#ffffff"
     bordercolor="#666666"
     borderopacity="1"
     objecttolerance="10"
     gridtolerance="10"
     guidetolerance="10"
     inkscape:pageopacity="0"
     inkscape:pageshadow="2"
     inkscape:window-width="1366"
     inkscape:window-height="691"
     id="namedview23"
     showgrid="false"
     inkscape:zoom="3.6589148"
     inkscape:cx="33.437847"
     inkscape:cy="33.444487"
     inkscape:window-x="0"
     inkscape:window-y="0"
     inkscape:window-maximized="1"
     inkscape:current-layer="Слой_1" /><style
     type="text/css"
     id="style2">
	.st0{fill:#3F61AC;}
	.st1{fill:#FFFFFF;}
	.st2{fill:#2B388F;}
	.st3{fill:#58595B;}
</style><style
     id="style2-6"
     type="text/css">
	.st0{fill:#ED443E;}
	.st1{fill:#C2232F;}
</style><style
     id="style837"
     type="text/css">
	.st0{fill:#F6921E;}
	.st1{fill:#F05A28;}
	.st2{fill:#FFFFFF;}
	.st3{fill:#58595B;}
</style><style
     id="style2-3"
     type="text/css">
	.st0{fill:#ED443E;}
	.st1{fill:#C2232F;}
</style><path
     style="fill:url(#linearGradient1195);fill-opacity:1;stroke-width:1"
     d="M 33.423394,0 C 24.858413,0 16.293543,3.26051 9.7761225,9.77792 c -13.03483,13.034839 -13.03483,34.25972 0,47.29457 6.2291105,6.22904 14.4185305,9.458904 22.6086705,9.804952 8.882191,0.230705 17.88004,-2.999162 24.68586,-9.804952 6.11377,-6.1137 9.34367,-14.07437 9.80504,-22.14906 l -0.11264,-0.11038 C 67.192384,25.85044 63.963533,16.67083 57.070553,9.77793 50.553233,3.26051 41.988263,0 33.423283,0 Z"
     id="path1191"
     inkscape:connector-curvature="0" /><path
     inkscape:connector-curvature="0"
     id="path1193"
     d="m 33.725554,2.47559 c -4.008911,-0.0372 -7.919831,0.71459 -11.54339,2.13821 -0.0691,0.0267 -0.13823,0.053 -0.207081,0.0802 -0.002,0.001 -0.004,0.002 -0.006,0.002 C 10.528664,9.22739 2.4635325,20.375579 2.4635325,33.45298 c 0,13.69808 8.9131905,25.27882 21.1954405,29.35622 0.60136,0.21298 1.22394,0.41857 1.85889,0.58869 16.45964,4.306651 33.3743,-5.459 37.80359,-21.98929 0.553729,-2.0663 0.885611,-4.13862 1.010209,-6.1918 0,-10e-4 0,-0.002 0,-0.002 0.0465,-0.60896 0.0805,-1.23427 0.0805,-1.86174 -0.0112,-1.90709 -0.19605,-3.77336 -0.537089,-5.585041 -0.037,-0.199909 -0.0768,-0.398959 -0.117631,-0.597819 -0.002,-0.0106 -0.004,-0.0213 -0.006,-0.0319 C 61.463003,16.05816 53.153883,6.66904 41.454802,3.53427 38.871922,2.8422 36.279062,2.49902 33.725512,2.47533 Z m -0.3374,1.97996 c 7.43079,0 14.861689,2.8273 20.516169,8.481749 6.00477,6.00473 8.807101,14.01107 8.406781,21.817231 -0.30026,7.00553 -3.102591,13.91089 -8.406781,19.21506 -0.87781,0.87781 -1.79847,1.68547 -2.75376,2.42647 -1.00324,0.7714 -2.06722,1.48661 -3.19225,2.13618 -7.35424,4.24602 -15.813129,4.88065 -23.24975,2.47359 -6.68913,-2.10319 -12.634099,-6.59727 -16.3846505,-13.09355 -4.17531,-7.23166 -4.86154,-15.49707 -2.67367,-22.88878 0.42288,-1.41736 0.95622,-2.80485 1.59368,-4.14885 0.0457,-0.0951 0.0898,-0.19088 0.13645,-0.28561 1.36393,-2.76437 3.1944315,-5.35461 5.4916105,-7.65174 5.65438,-5.65445 13.085269,-8.48175 20.516171,-8.48175 z"
     style="fill:#ffffff;stroke-width:1.00000012" /><path
     inkscape:connector-curvature="0"
     id="path1197"
     d="M 33.423394,0 C 24.858413,0 16.293543,3.26051 9.7761225,9.77792 c -13.03483,13.034839 -13.03483,34.25972 0,47.29457 6.2291105,6.22904 14.4185305,9.458904 22.6086705,9.804952 8.882191,0.230705 17.88004,-2.999162 24.68586,-9.804952 6.11377,-6.1137 9.34367,-14.07437 9.80504,-22.14906 l -0.11264,-0.11038 C 67.192384,25.85044 63.963533,16.67083 57.070553,9.77793 50.553233,3.26051 41.988263,0 33.423283,0 Z"
     style="fill:#a7ac93;fill-opacity:1;stroke-width:1" /><path
     style="fill:#ffffff;stroke-width:1.00000012"
     d="m 33.725554,2.47559 c -4.008911,-0.0372 -7.919831,0.71459 -11.54339,2.13821 -0.0691,0.0267 -0.13823,0.053 -0.207081,0.0802 -0.002,0.001 -0.004,0.002 -0.006,0.002 C 10.528664,9.22739 2.4635325,20.375579 2.4635325,33.45298 c 0,13.69808 8.9131905,25.27882 21.1954405,29.35622 0.60136,0.21298 1.22394,0.41857 1.85889,0.58869 16.45964,4.306651 33.3743,-5.459 37.80359,-21.98929 0.553729,-2.0663 0.885611,-4.13862 1.010209,-6.1918 0,-10e-4 0,-0.002 0,-0.002 0.0465,-0.60896 0.0805,-1.23427 0.0805,-1.86174 -0.0112,-1.90709 -0.19605,-3.77336 -0.537089,-5.585041 -0.037,-0.199909 -0.0768,-0.398959 -0.117631,-0.597819 -0.002,-0.0106 -0.004,-0.0213 -0.006,-0.0319 C 61.463003,16.05816 53.153883,6.66904 41.454802,3.53427 38.871922,2.8422 36.279062,2.49902 33.725512,2.47533 Z m -0.3374,1.97996 c 7.43079,0 14.861689,2.8273 20.516169,8.481749 6.00477,6.00473 8.807101,14.01107 8.406781,21.817231 -0.30026,7.00553 -3.102591,13.91089 -8.406781,19.21506 -0.87781,0.87781 -1.79847,1.68547 -2.75376,2.42647 -1.00324,0.7714 -2.06722,1.48661 -3.19225,2.13618 -7.35424,4.24602 -15.813129,4.88065 -23.24975,2.47359 -6.68913,-2.10319 -12.634099,-6.59727 -16.3846505,-13.09355 -4.17531,-7.23166 -4.86154,-15.49707 -2.67367,-22.88878 0.42288,-1.41736 0.95622,-2.80485 1.59368,-4.14885 0.0457,-0.0951 0.0898,-0.19088 0.13645,-0.28561 1.36393,-2.76437 3.1944315,-5.35461 5.4916105,-7.65174 5.65438,-5.65445 13.085269,-8.48175 20.516171,-8.48175 z"
     id="path1199"
     inkscape:connector-curvature="0" /><g
     style="fill:#ffffff;stroke-width:6.69642878"
     id="g938"
     transform="matrix(0.7,0,0,0.7,11.037844,11.96778)"><g
       id="g926"
       style="fill:#ffffff;stroke-width:6.69642878"><path
         id="path924"
         d="M 44,19 H 42.946 C 42.565,15.177 39.986,13.512 36.997,12.177 36.999,12.118 37,12.059 37,12 37,9.243 34.757,7 32,7 c -2.757,0 -5,2.243 -5,5 0,0.059 0.001,0.118 0.003,0.177 -2.989,1.335 -5.569,3 -5.95,6.823 H 20 c -0.552,0 -1,0.448 -1,1 0,0.552 0.448,1 1,1 h 1.103 c 0.248,1.864 1.086,7.046 3.917,21.196 0.756,3.782 3.006,6.267 5.98,6.722 V 53 h -1 c -0.552,0 -1,0.447 -1,1 0,0.553 0.448,1 1,1 h 1 v 1 c 0,0.553 0.448,1 1,1 0.552,0 1,-0.447 1,-1 v -1 h 1 c 0.553,0 1,-0.447 1,-1 0,-0.553 -0.447,-1 -1,-1 h -1 v -4.082 c 2.975,-0.455 5.225,-2.939 5.98,-6.722 C 41.81,28.046 42.649,22.864 42.896,21 H 44 c 0.553,0 1,-0.448 1,-1 0,-0.552 -0.447,-1 -1,-1 z M 37.577,39 H 33 V 21 h 7.879 c -0.248,1.766 -1.005,6.396 -3.302,18 z M 26.423,39 C 24.127,27.4 23.369,22.768 23.121,21 H 31 v 18 z m 2.05,-25.281 C 28.91,13.533 29.155,13.066 29.061,12.601 29.021,12.401 29,12.199 29,12 c 0,-1.654 1.346,-3 3,-3 1.654,0 3,1.346 3,3 0,0.199 -0.021,0.402 -0.061,0.603 -0.093,0.464 0.152,0.93 0.588,1.116 3.315,1.414 5.078,2.638 5.413,5.281 H 23.06 c 0.335,-2.644 2.097,-3.867 5.413,-5.281 z M 32,47 C 28.307,47 27.225,43.022 26.98,41.804 26.925,41.529 26.873,41.269 26.82,41 h 10.36 c -0.054,0.269 -0.105,0.528 -0.16,0.804 C 36.775,43.022 35.693,47 32,47 Z"
         inkscape:connector-curvature="0"
         style="fill:#ffffff;stroke-width:6.69642878" /></g></g></svg>